<?xml version="1.0" standalone="no"?>
<!DOCTYPE svg PUBLIC "-//W3C//DTD SVG 20010904//EN"
 "http://www.w3.org/TR/2001/REC-SVG-20010904/DTD/svg10.dtd">
<svg version="1.0" xmlns="http://www.w3.org/2000/svg"
 width="828.000000pt" height="828.000000pt" viewBox="0 0 828.000000 828.000000"
 preserveAspectRatio="xMidYMid meet">
<metadata>
Created by potrace 1.14, written by Peter Selinger 2001-2017
</metadata>
<g transform="translate(0.000000,828.000000) scale(0.100000,-0.100000)"
fill="#000000" stroke="none">
<path d="M3260 8221 c0 -6 4 -13 10 -16 6 -3 7 1 4 9 -7 18 -14 21 -14 7z"/>
<path d="M3306 8192 c-3 -6 -1 -14 5 -17 14 -9 20 -2 10 14 -6 8 -11 9 -15 3z"/>
<path d="M4100 7309 c-30 -4 -126 -12 -213 -18 -86 -7 -181 -16 -210 -22 -28
-6 -81 -15 -117 -19 -36 -5 -92 -16 -125 -24 -33 -8 -87 -22 -120 -30 -70 -17
-228 -60 -300 -82 -27 -8 -68 -20 -90 -26 -22 -6 -42 -14 -45 -18 -3 -4 -39
-20 -80 -36 -41 -15 -78 -32 -81 -37 -3 -5 -9 -8 -13 -8 -20 3 -26 -1 -26 -14
0 -21 -18 -19 -23 3 -4 13 -5 13 -6 1 -1 -9 -41 -35 -98 -64 -54 -27 -100 -52
-103 -56 -3 -3 -42 -25 -88 -49 -45 -23 -88 -47 -95 -54 -7 -6 -36 -23 -65
-38 -29 -14 -52 -28 -50 -31 4 -6 -47 -47 -59 -47 -4 0 -33 -23 -63 -51 -30
-27 -65 -54 -77 -59 -13 -5 -23 -16 -23 -25 0 -9 -12 -18 -29 -21 -20 -4 -28
-11 -24 -20 3 -9 -1 -14 -12 -14 -31 0 -9 -25 46 -52 33 -17 62 -25 74 -21 11
3 67 48 124 99 76 68 110 93 123 88 15 -4 67 22 88 46 6 6 14 11 151 91 58 35
110 72 115 83 6 15 21 23 54 27 25 3 63 16 85 28 22 13 69 33 105 46 36 13
110 40 165 60 55 21 127 45 160 55 33 10 78 25 100 34 22 9 91 28 155 42 63
14 162 36 220 49 58 13 129 27 158 30 28 4 52 10 52 15 0 4 26 8 58 8 31 0 68
3 81 6 95 22 476 26 661 8 69 -7 175 -17 235 -23 337 -32 406 -44 398 -68 -5
-13 -3 -14 8 -3 15 13 59 17 59 4 0 -5 14 -10 30 -11 72 -5 80 -7 80 -19 0
-10 9 -12 33 -7 17 4 34 9 37 12 7 7 -22 22 -64 34 -21 6 -46 14 -55 19 -17
10 -77 28 -181 54 -36 10 -80 22 -97 27 -18 6 -65 13 -105 16 -40 2 -91 11
-113 19 -22 7 -65 16 -95 19 -55 5 -130 13 -316 35 -56 6 -154 10 -218 8 -64
-2 -117 -1 -119 2 -1 3 -27 3 -57 -1z"/>
<path d="M3448 7303 c6 -2 18 -2 25 0 6 3 1 5 -13 5 -14 0 -19 -2 -12 -5z"/>
<path d="M3302 7280 c-18 -4 -36 -11 -39 -14 -8 -7 53 4 82 15 25 10 1 9 -43
-1z"/>
<path d="M5650 7280 c0 -5 5 -10 10 -10 6 0 10 5 10 10 0 6 -4 10 -10 10 -5 0
-10 -4 -10 -10z"/>
<path d="M5368 7073 c7 -3 16 -2 19 1 4 3 -2 6 -13 5 -11 0 -14 -3 -6 -6z"/>
<path d="M4682 7029 c-45 -4 -108 -13 -140 -20 -31 -7 -60 -12 -64 -11 -12 3
-112 -20 -123 -27 -13 -10 -92 -37 -127 -45 -16 -4 -28 -11 -28 -17 0 -7 9 -9
23 -5 12 3 39 9 59 12 21 4 36 9 34 13 -7 10 286 4 384 -8 175 -22 220 -31
220 -46 0 -8 -8 -16 -17 -18 -10 -2 -3 -2 15 0 18 2 39 5 45 7 7 1 9 1 5 -1
-18 -10 -6 -23 22 -23 17 0 30 -4 30 -9 0 -5 26 -12 58 -16 31 -4 82 -14 112
-22 30 -8 80 -22 110 -29 115 -30 229 -68 224 -76 -3 -4 2 -5 11 -1 10 3 20 2
24 -3 11 -17 140 -66 152 -59 6 4 14 2 18 -4 4 -6 18 -13 30 -16 37 -7 63 -16
119 -41 29 -13 57 -24 63 -24 6 0 58 -27 115 -60 57 -33 108 -60 113 -60 11 0
161 -139 206 -190 16 -19 53 -59 82 -90 98 -105 183 -210 183 -226 0 -6 11
-23 24 -37 13 -14 21 -28 19 -31 -3 -3 0 -12 7 -21 7 -9 10 -18 7 -22 -9 -9
13 -44 24 -38 5 4 9 -5 9 -19 0 -14 9 -34 21 -44 14 -14 19 -28 15 -48 -2 -16
-5 -33 -5 -37 -1 -5 -6 -5 -12 -1 -8 4 -7 9 2 15 10 6 10 9 2 9 -20 0 -26 -20
-11 -38 12 -15 11 -16 -5 -3 -11 8 -15 21 -12 32 10 31 -5 43 -27 22 -19 -17
-20 -17 -17 2 3 14 -1 19 -12 17 -9 -1 -23 5 -30 15 -12 15 -12 16 4 10 17 -6
17 -6 0 18 -10 13 -22 25 -27 25 -5 0 -3 -6 3 -14 6 -8 10 -18 9 -23 -2 -5 19
-34 45 -64 27 -30 52 -62 57 -70 8 -12 12 -11 25 6 16 20 16 19 5 -2 -9 -20
-4 -31 38 -85 69 -88 146 -215 187 -310 32 -72 34 -83 21 -96 -13 -14 -15 -13
-14 4 2 31 -83 200 -109 217 -7 4 -13 14 -13 22 0 7 -6 20 -12 27 -7 7 -26 33
-43 58 -16 25 -33 47 -37 48 -5 2 -8 9 -8 15 0 7 -9 18 -20 25 -11 6 -31 30
-45 51 -13 22 -48 61 -76 88 -29 26 -60 56 -70 67 -10 10 -23 15 -30 11 -7 -5
-10 -4 -5 3 7 11 -38 49 -92 76 -33 17 -33 17 -22 -4 6 -12 18 -19 25 -16 8 3
12 0 10 -7 -2 -7 14 -25 36 -40 23 -16 38 -31 35 -34 -3 -3 -14 0 -23 8 -10 7
1 -6 25 -29 23 -24 42 -47 42 -53 0 -6 5 -7 12 -3 7 5 8 3 3 -5 -4 -7 1 -22
13 -34 28 -32 142 -269 142 -297 0 -14 7 -50 15 -80 20 -75 19 -284 -1 -375
-9 -38 -17 -87 -19 -107 -2 -21 -12 -56 -24 -78 -11 -22 -18 -40 -15 -40 4 0
2 -6 -3 -12 -5 -7 -18 -35 -27 -63 -47 -131 -121 -242 -264 -388 -20 -21 -90
-70 -109 -78 -13 -5 -23 -13 -23 -18 0 -6 -27 -22 -60 -38 -33 -15 -60 -31
-60 -35 0 -8 -45 -30 -66 -32 -6 -1 -28 -9 -50 -20 -52 -25 -110 -51 -159 -71
-22 -9 -49 -21 -60 -26 -12 -6 -27 -11 -35 -13 -8 -2 -22 -6 -30 -9 -8 -3 -37
-13 -65 -22 -27 -10 -59 -21 -70 -26 -11 -5 -43 -13 -72 -19 -52 -9 -93 -28
-93 -42 0 -5 -27 -8 -59 -8 -43 0 -60 -4 -65 -15 -3 -8 -16 -15 -28 -15 -52
-1 -123 -27 -133 -48 -12 -26 -59 -30 -91 -8 -22 16 -25 15 -95 -32 -34 -22
-34 -22 -51 -2 -9 11 -19 20 -24 20 -4 0 -13 8 -20 18 -12 16 -13 15 -14 -8
-1 -59 -32 -99 -52 -68 -5 9 -8 10 -8 1 0 -7 15 -26 33 -43 27 -26 38 -30 70
-27 32 5 40 1 61 -26 l24 -30 134 -5 c97 -3 181 1 313 17 256 30 264 32 240
43 -16 6 -13 7 10 4 38 -6 229 35 212 46 -8 5 -6 8 8 8 29 0 355 112 350 121
-5 7 72 39 95 39 39 0 244 126 233 143 -4 6 0 8 10 4 9 -3 19 -2 22 3 4 6 0
10 -7 10 -15 0 42 49 57 49 6 1 3 -4 -5 -9 -8 -5 -10 -10 -4 -10 19 0 145 102
230 186 220 217 339 425 410 710 22 93 25 126 25 264 -1 116 -6 183 -21 255
-11 53 -20 99 -20 101 0 2 -4 4 -9 4 -5 0 -12 -10 -14 -22 -4 -21 -4 -21 -6 3
0 14 5 31 12 38 6 8 7 11 1 8 -14 -8 -30 24 -45 93 -6 30 -15 62 -20 70 -14
26 -11 -21 6 -76 8 -27 15 -65 14 -84 0 -25 -10 -3 -35 80 -33 108 -145 350
-183 395 -9 11 -23 34 -31 50 -8 17 -23 39 -33 50 -10 11 -26 34 -34 50 -13
25 -74 108 -93 125 -3 3 -22 26 -42 51 -20 25 -51 61 -70 80 -18 19 -42 46
-54 59 -43 51 -192 190 -203 190 -6 0 -11 7 -11 16 0 10 -5 14 -16 10 -8 -3
-12 -2 -9 4 12 19 -15 50 -43 50 -20 0 -23 3 -13 9 11 7 4 10 -25 13 -31 2
-39 7 -39 23 0 23 -30 49 -45 40 -6 -3 -10 -1 -10 4 0 6 -9 11 -20 11 -11 0
-19 5 -17 11 3 16 -95 69 -118 63 -14 -4 -16 -3 -7 4 9 6 -4 16 -45 35 -69 30
-224 90 -273 105 -186 58 -281 82 -315 81 -11 0 21 -11 70 -25 148 -39 290
-85 370 -120 17 -7 48 -20 70 -29 66 -27 101 -45 90 -45 -14 0 -83 25 -91 33
-4 4 -23 7 -43 7 -28 0 -33 3 -21 11 11 7 3 9 -30 5 -25 -3 -37 -3 -27 0 9 3
17 10 17 14 0 6 -11 5 -25 0 -20 -7 -35 -5 -67 12 -23 12 -55 23 -72 24 -17 2
-51 9 -76 17 -69 23 -230 60 -275 63 -22 2 -56 8 -75 14 -46 14 -217 28 -302
24 -37 -1 -70 2 -73 7 -7 10 -73 10 -193 -2z m1488 -289 c0 -5 -7 -7 -15 -4
-8 4 -15 8 -15 10 0 2 7 4 15 4 8 0 15 -4 15 -10z m542 -1102 c-7 -7 -12 -8
-12 -2 0 14 12 26 19 19 2 -3 -1 -11 -7 -17z m84 -82 c0 -19 -3 -33 -7 -30 -5
2 -5 12 -2 21 5 11 3 14 -6 8 -10 -6 -11 -3 -2 14 15 28 16 27 17 -13z m483
-313 c0 -25 -1 -25 -8 -8 -5 11 -7 23 -4 28 8 14 13 7 12 -20z m29 -193 c-4
-43 -28 -53 -28 -12 0 17 3 38 6 47 10 26 26 1 22 -35z m-231 -14 c1 -14 -2
-26 -8 -26 -5 0 -9 9 -9 19 0 24 -13 33 -33 25 -9 -3 -13 -12 -10 -21 4 -11 2
-14 -5 -9 -17 10 -15 32 4 51 14 14 19 14 38 2 11 -8 22 -26 23 -41z m-37 -31
c-8 -9 -8 -15 0 -20 5 -3 10 0 10 7 0 8 6 6 18 -5 11 -12 14 -20 6 -25 -8 -5
-6 -38 8 -117 27 -153 13 -372 -25 -410 -6 -7 -8 -2 -3 15 21 84 26 173 16
300 -6 74 -15 139 -20 144 -6 6 -10 24 -10 41 0 17 -4 35 -10 41 -12 12 -1 56
12 48 5 -3 5 -11 -2 -19z m241 -231 c-5 -21 -9 -30 -10 -19 -1 24 10 67 15 62
3 -2 0 -22 -5 -43z m-20 -71 c-12 -20 -14 -14 -5 12 4 9 9 14 11 11 3 -2 0
-13 -6 -23z m-65 -135 c-14 -29 -24 -46 -22 -38 31 102 41 129 44 111 2 -12
-8 -45 -22 -73z m-69 20 c-3 -7 -5 -2 -5 12 0 14 2 19 5 13 2 -7 2 -19 0 -25z
m-10 -40 c-3 -8 -6 -5 -6 6 -1 11 2 17 5 13 3 -3 4 -12 1 -19z m-87 -195 c-11
-17 -11 -17 -6 0 3 10 6 24 7 30 0 9 2 9 5 0 3 -7 0 -20 -6 -30z m-210 -347
c0 -2 -8 -10 -17 -17 -16 -13 -17 -12 -4 4 13 16 21 21 21 13z m-440 -50 c0
-7 -6 -18 -12 -25 -11 -11 -10 -13 5 -8 22 8 22 1 -3 -25 -12 -13 -20 -17 -20
-9 0 8 -6 11 -15 7 -19 -7 -19 8 0 24 11 9 12 17 5 30 -14 26 -13 28 15 22 14
-2 25 -10 25 -16z m-1530 -456 c0 -5 -4 -10 -10 -10 -5 0 -10 5 -10 10 0 6 5
10 10 10 6 0 10 -4 10 -10z"/>
<path d="M5628 7033 c7 -3 16 -2 19 1 4 3 -2 6 -13 5 -11 0 -14 -3 -6 -6z"/>
<path d="M2360 6840 c-9 -6 -10 -10 -3 -10 6 0 15 5 18 10 8 12 4 12 -15 0z"/>
<path d="M6700 6760 c-8 -5 -10 -10 -5 -10 6 0 17 5 25 10 8 5 11 10 5 10 -5
0 -17 -5 -25 -10z"/>
<path d="M3379 6710 c-8 -6 -7 -9 2 -13 11 -4 11 -6 1 -6 -15 -1 -6 -21 9 -21
6 0 7 5 3 12 -5 8 -2 9 12 4 10 -4 15 -4 11 0 -4 5 2 13 14 19 19 11 19 12
-10 12 -16 0 -35 -4 -42 -7z"/>
<path d="M6640 6665 c0 -19 4 -35 8 -35 4 0 6 16 4 35 -2 19 -6 35 -8 35 -2 0
-4 -16 -4 -35z"/>
<path d="M3310 6671 c-13 -11 -27 -18 -30 -16 -10 6 -70 -24 -70 -35 0 -5 -7
-10 -16 -10 -36 0 -205 -90 -285 -151 -19 -15 -47 -31 -62 -34 -15 -4 -27 -11
-27 -15 0 -5 -9 -12 -21 -15 -44 -14 -8 -14 107 -1 65 8 150 17 188 21 62 6
73 11 112 47 24 22 44 46 44 52 0 6 -18 -8 -40 -31 -41 -45 -57 -55 -41 -25
17 31 65 70 91 74 16 2 25 9 24 20 -1 10 2 15 7 13 4 -3 12 3 18 12 8 14 10 5
8 -34 -1 -29 -5 -53 -9 -53 -5 0 -8 -4 -8 -9 0 -6 14 -11 32 -13 l32 -3 -32
-35 c-22 -24 -30 -29 -26 -15 4 11 11 26 17 33 6 8 6 12 -2 12 -6 0 -18 -11
-27 -24 -10 -17 -21 -23 -32 -18 -14 5 -14 3 2 -13 11 -11 24 -20 30 -20 26 0
12 -22 -27 -42 -23 -12 -47 -26 -52 -30 -6 -4 -16 -9 -23 -11 -21 -4 -120 -62
-132 -77 -10 -12 -9 -15 6 -15 15 0 14 -3 -6 -13 -27 -14 -54 -11 -44 5 3 5
-7 3 -22 -5 -35 -18 -154 -105 -154 -112 0 -5 62 37 132 88 15 12 31 17 35 13
4 -4 0 -12 -9 -17 -9 -5 -24 -16 -32 -24 -8 -8 -18 -15 -23 -15 -4 -1 -21 -12
-38 -26 -18 -15 -23 -22 -11 -18 11 5 17 3 13 -2 -3 -5 3 -10 13 -10 12 0 16
4 10 11 -6 7 -2 11 10 11 10 0 16 -4 13 -9 -3 -6 8 1 25 13 17 13 29 26 27 30
-3 4 9 13 25 20 17 7 30 16 30 21 0 5 6 9 14 9 8 0 21 6 28 13 7 7 31 21 53
31 58 27 68 36 54 52 -14 17 2 18 20 2 11 -11 12 -10 7 0 -10 18 12 42 31 35
11 -5 14 -3 8 6 -6 10 -3 11 14 2 16 -9 21 -9 21 0 0 6 7 9 14 6 11 -4 13 -1
10 11 -5 16 -4 16 9 0 8 -10 17 -15 20 -11 4 3 -2 14 -14 24 -14 12 -18 24
-14 41 8 29 34 62 58 71 18 7 24 37 7 37 -5 0 -10 5 -10 10 0 6 7 10 15 10 8
0 15 9 15 21 0 11 -4 18 -9 15 -4 -3 -7 5 -6 19 4 32 -17 50 -44 36 -32 -17
-36 -13 -8 9 14 11 34 20 45 20 10 0 27 10 38 22 17 20 17 21 1 9 -26 -20 -75
-22 -73 -2 2 23 -26 24 -54 2z m55 -163 c-19 -11 -30 -5 -21 11 4 6 14 7 22 4
15 -5 14 -7 -1 -15z m-186 -235 c-12 -15 -12 -16 4 -10 11 4 16 3 12 -4 -4 -5
-16 -7 -27 -3 -13 4 -18 2 -14 -4 4 -6 -2 -8 -16 -4 -16 4 -19 2 -13 -9 5 -8
5 -11 0 -7 -4 4 -16 3 -26 -3 -38 -20 -18 2 29 31 53 33 71 38 51 13z"/>
<path d="M4398 6616 c3 -5 -12 -7 -35 -4 -22 3 -46 2 -52 -1 -7 -4 3 -8 21 -9
37 -1 207 -28 278 -43 61 -13 421 -122 417 -126 -2 -1 -29 2 -61 8 -41 7 -61
7 -71 -1 -9 -8 -14 -7 -19 5 -3 8 -10 15 -16 15 -6 0 -8 -4 -5 -10 3 -6 -1 -7
-9 -4 -9 3 -16 10 -16 15 0 5 -13 9 -29 9 -17 0 -32 4 -35 9 -3 5 -16 7 -28 3
-14 -3 -19 -1 -14 6 5 8 -1 12 -16 11 -57 -1 -153 12 -156 21 -2 5 -20 10 -41
10 -20 0 -43 6 -50 13 -17 17 -502 12 -636 -7 l-100 -15 80 5 c62 5 77 3 68
-6 -7 -8 -53 -14 -120 -16 -101 -4 -109 -3 -110 15 -1 16 12 21 111 36 62 9
119 21 127 26 19 12 -8 12 -164 -3 -108 -10 -126 -15 -121 -28 13 -32 16 -50
8 -50 -5 0 -10 -16 -12 -35 l-2 -36 27 15 c33 16 368 33 342 17 -8 -6 -57 -13
-107 -17 -51 -4 -92 -11 -92 -15 0 -11 -3 -11 89 1 117 15 364 13 496 -4 143
-19 257 -47 252 -61 -2 -5 18 -26 44 -45 27 -19 52 -44 55 -54 7 -21 53 -63
90 -82 20 -11 26 -7 61 28 54 56 63 59 113 42 23 -8 45 -13 47 -10 2 2 -4 7
-15 10 -10 4 -25 18 -32 31 -14 26 -40 34 -40 13 0 -6 -3 -8 -6 -5 -4 4 -2 13
5 21 9 11 7 15 -14 18 -14 3 -25 2 -25 -2 0 -4 -9 -17 -19 -29 -16 -18 -24
-20 -38 -12 -10 6 -13 11 -6 11 7 0 10 7 6 17 -5 13 -2 15 13 10 18 -7 18 -7
0 7 -14 11 -15 18 -7 28 7 7 19 22 27 33 10 13 14 15 11 4 -3 -9 1 -16 9 -16
7 0 11 4 8 9 -8 12 19 10 104 -11 110 -26 188 -40 262 -46 66 -5 59 0 -32 23
-24 6 -10 8 53 8 48 -1 82 -4 75 -8 -12 -9 2 -11 45 -8 15 0 51 -7 80 -17 l54
-18 -40 -6 c-27 -4 -31 -7 -14 -8 14 0 61 -10 104 -21 74 -19 79 -19 91 -3 9
14 9 20 1 25 -8 5 -7 8 3 8 13 0 13 1 0 10 -8 5 -31 9 -50 9 -19 0 -29 -3 -22
-6 24 -9 12 -23 -20 -23 -25 0 -29 3 -18 10 13 8 12 10 -2 10 -10 0 -18 8 -19
18 0 10 -3 12 -6 5 -2 -7 -11 -13 -19 -13 -9 0 -13 4 -9 10 3 5 -8 16 -25 25
-33 17 -40 30 -12 23 15 -4 17 0 13 26 -4 26 -6 27 -9 9 -2 -13 -8 -23 -14
-23 -7 0 -8 21 -5 58 5 52 5 54 -5 20 -12 -45 -20 -46 -109 -18 -35 11 -82 25
-104 31 -22 6 -49 15 -60 20 -11 4 -49 18 -85 29 -55 18 -108 28 -290 56 -14
2 -91 11 -172 19 -154 16 -240 16 -230 1z m-460 -93 c-10 -2 -26 -2 -35 0 -10
3 -2 5 17 5 19 0 27 -2 18 -5z m617 -53 c116 -23 213 -47 216 -53 4 -5 14 -7
23 -4 20 8 21 -7 1 -23 -12 -10 -21 -10 -46 0 -23 10 -27 15 -17 22 9 6 6 7
-8 3 -12 -3 -34 0 -50 6 -38 15 -79 25 -194 48 -134 27 -183 32 -364 41 l-161
8 195 -2 c186 -2 204 -5 405 -46z m-416 16 c-2 -2 -123 -5 -269 -8 -146 -2
-236 -2 -200 2 69 7 476 12 469 6z m501 -76 c20 -6 21 -8 5 -8 -11 0 -31 4
-45 8 -20 6 -21 8 -5 8 11 0 31 -4 45 -8z m85 -30 c3 -6 -1 -7 -9 -4 -18 7
-21 14 -7 14 6 0 13 -4 16 -10z m358 3 c-7 -2 -19 -2 -25 0 -7 3 -2 5 12 5 14
0 19 -2 13 -5z m201 -2 c3 -4 -6 -6 -19 -3 -14 2 -25 6 -25 8 0 8 39 4 44 -5z"/>
<path d="M5513 6596 c-18 -18 -33 -41 -32 -52 0 -18 1 -18 9 1 7 18 8 18 15
-8 8 -29 38 -52 55 -42 17 10 8 137 -9 134 -3 -1 -21 -16 -38 -33z"/>
<path d="M3560 6600 c0 -5 5 -10 11 -10 5 0 7 5 4 10 -3 6 -8 10 -11 10 -2 0
-4 -4 -4 -10z"/>
<path d="M3490 6589 c0 -5 5 -7 10 -4 6 3 10 8 10 11 0 2 -4 4 -10 4 -5 0 -10
-5 -10 -11z"/>
<path d="M3531 6574 c0 -11 3 -14 6 -6 3 7 2 16 -1 19 -3 4 -6 -2 -5 -13z"/>
<path d="M5675 6530 c-10 -16 5 -50 21 -50 9 0 12 -5 8 -11 -4 -7 -2 -10 5 -8
7 3 12 8 12 12 -1 4 -1 21 -1 37 0 23 -5 30 -19 30 -11 0 -23 -5 -26 -10z"/>
<path d="M2133 6476 c-32 -30 -74 -68 -93 -85 -29 -25 -33 -32 -21 -43 8 -7
11 -8 8 -2 -6 10 66 85 146 152 21 18 33 32 28 32 -5 0 -36 -24 -68 -54z"/>
<path d="M3517 6490 c3 -12 0 -20 -6 -20 -7 0 -9 -4 -6 -10 3 -5 10 -10 16
-10 12 0 12 47 0 54 -5 4 -7 -3 -4 -14z"/>
<path d="M3450 6489 c0 -5 5 -7 10 -4 6 3 10 8 10 11 0 2 -4 4 -10 4 -5 0 -10
-5 -10 -11z"/>
<path d="M5613 6464 c-3 -8 -1 -25 5 -37 9 -19 10 -18 5 11 -5 27 -3 31 11 26
9 -3 16 -4 16 -1 0 14 -31 15 -37 1z"/>
<path d="M5746 6435 c-3 -9 -6 -22 -5 -28 0 -7 5 -1 10 12 5 13 8 26 5 28 -2
2 -6 -3 -10 -12z"/>
<path d="M3490 6421 c0 -6 5 -13 10 -16 6 -3 10 1 10 9 0 9 -4 16 -10 16 -5 0
-10 -4 -10 -9z"/>
<path d="M3576 6419 c2 -4 -2 -11 -9 -16 -7 -4 -16 -15 -19 -24 -6 -14 -1 -15
29 -8 20 4 39 12 42 17 3 6 24 13 45 16 42 7 59 15 35 17 -53 6 -127 5 -123
-2z"/>
<path d="M1770 6380 c-19 -19 -33 -38 -32 -42 1 -5 -2 -8 -8 -8 -5 0 -10 -5
-10 -10 0 -6 8 -5 19 2 11 7 17 16 15 20 -3 4 -1 8 4 8 8 0 57 60 50 63 -1 2
-19 -13 -38 -33z"/>
<path d="M1831 6402 c-1 -7 -14 -27 -30 -45 -17 -17 -28 -34 -25 -38 4 -6 72
5 78 13 1 1 -3 21 -10 43 -7 22 -13 34 -13 27z"/>
<path d="M3058 6383 c12 -2 32 -2 45 0 12 2 2 4 -23 4 -25 0 -35 -2 -22 -4z"/>
<path d="M2963 6373 c9 -2 25 -2 35 0 9 3 1 5 -18 5 -19 0 -27 -2 -17 -5z"/>
<path d="M5650 6370 c0 -5 4 -10 9 -10 6 0 13 5 16 10 3 6 -1 10 -9 10 -9 0
-16 -4 -16 -10z"/>
<path d="M2893 6363 c9 -2 23 -2 30 0 6 3 -1 5 -18 5 -16 0 -22 -2 -12 -5z"/>
<path d="M5696 6351 c-16 -17 -16 -21 1 -55 15 -32 15 -38 3 -46 -13 -9 -13
-10 0 -11 8 -1 26 -3 40 -5 14 -2 39 -6 55 -8 17 -2 39 -7 50 -11 11 -4 16 -3
10 2 -6 4 -11 15 -10 23 0 8 -19 34 -43 57 -23 23 -42 36 -42 30 0 -7 -7 -4
-15 7 -8 10 -19 15 -26 10 -9 -5 -10 -2 -6 9 8 22 4 21 -17 -2z"/>
<path d="M3466 6351 c-4 -6 -13 -8 -21 -4 -8 3 -15 0 -15 -6 0 -14 37 -14 45
0 4 6 5 13 2 15 -3 3 -8 1 -11 -5z"/>
<path d="M5338 6323 c6 -2 18 -2 25 0 6 3 1 5 -13 5 -14 0 -19 -2 -12 -5z"/>
<path d="M5158 6313 c6 -2 18 -2 25 0 6 3 1 5 -13 5 -14 0 -19 -2 -12 -5z"/>
<path d="M5408 6313 c6 -2 18 -2 25 0 6 3 1 5 -13 5 -14 0 -19 -2 -12 -5z"/>
<path d="M1866 6295 c-11 -8 -17 -18 -13 -22 9 -8 57 14 57 27 0 14 -22 12
-44 -5z"/>
<path d="M3002 6306 c9 -10 -24 -29 -68 -40 -16 -4 -36 -14 -44 -22 -22 -21
-89 -64 -100 -64 -6 0 -10 -4 -10 -10 0 -5 -7 -10 -15 -10 -8 0 -15 -3 -15 -8
0 -4 -25 -22 -55 -40 -40 -24 -53 -37 -48 -49 4 -9 2 -14 -3 -10 -16 9 -204
-193 -204 -219 0 -3 -10 -20 -22 -37 -13 -18 -22 -33 -20 -35 2 -2 -7 -18 -44
-77 -10 -16 -26 -50 -35 -75 -9 -25 -30 -77 -47 -115 -17 -39 -34 -86 -37
-105 -3 -19 -10 -48 -15 -65 -29 -97 -44 -450 -26 -625 15 -137 39 -286 51
-315 13 -28 13 -25 15 50 3 97 3 98 33 210 14 49 23 96 20 105 -4 13 -4 13 6
0 6 -8 11 -10 11 -4 0 5 7 19 16 30 8 10 12 13 9 6 -22 -42 -28 -289 -11 -431
9 -74 17 -135 18 -137 2 -1 1 71 -1 161 -2 127 0 174 12 207 8 24 15 53 15 65
1 13 7 32 15 44 15 20 15 20 21 2 4 -11 20 -33 37 -49 25 -24 22 -15 -21 49
-28 43 -54 85 -57 93 -11 28 5 13 36 -33 40 -62 91 -119 103 -115 5 1 7 -1 4
-6 -7 -12 68 -84 79 -75 4 5 5 3 2 -4 -4 -7 23 -36 69 -73 85 -68 192 -145
202 -145 4 -1 26 -13 49 -28 59 -37 248 -123 328 -148 77 -25 178 -49 182 -45
3 3 -15 9 -38 15 -85 21 -178 52 -184 61 -9 14 19 12 32 -1 6 -6 17 -9 23 -7
8 2 1 11 -14 22 -27 17 -28 17 -48 0 -11 -10 -19 -14 -18 -9 7 31 -5 53 -40
77 -30 21 -40 24 -40 13 0 -12 -5 -10 -20 5 -12 12 -18 25 -15 29 2 5 -11 16
-31 26 -20 9 -33 19 -30 23 8 8 -24 42 -41 42 -7 0 -13 5 -13 10 0 6 -7 13
-15 16 -8 4 -30 20 -47 36 -18 17 -42 34 -53 39 -43 19 -143 97 -196 154 -53
58 -129 156 -129 169 0 3 -14 34 -31 68 -46 94 -70 176 -63 214 3 18 3 43 -2
56 -6 21 -8 20 -19 -17 l-13 -40 -1 57 c-1 32 4 60 10 64 8 5 8 9 -1 14 -9 6
-9 13 2 30 10 18 10 24 1 27 -7 3 -13 10 -13 16 0 19 61 210 78 244 9 18 14
35 10 38 -11 11 -73 -128 -116 -260 -22 -68 -26 -99 -26 -205 -1 -69 3 -150 7
-180 5 -30 5 -52 2 -48 -13 12 -35 186 -35 272 0 102 -5 110 -13 18 -2 -35 -8
-66 -12 -70 -15 -14 7 155 31 241 13 48 22 92 19 97 -3 5 4 24 15 42 11 18 20
43 20 55 0 12 5 25 10 28 6 3 17 21 26 38 l15 32 -26 -30 c-21 -24 -19 -15 14
45 22 41 45 74 52 72 6 -1 8 2 4 8 -8 13 34 72 46 64 5 -3 9 -2 8 3 -3 12 13
46 30 63 13 13 14 12 9 -7 -3 -13 -3 -23 1 -23 12 0 31 39 25 54 -3 8 -1 17 5
21 7 4 8 -1 4 -12 -3 -10 41 30 98 89 83 85 132 125 244 197 77 50 135 91 128
91 -6 0 -15 -5 -18 -11 -5 -7 -14 -4 -28 8 -12 10 -19 14 -15 9z m-322 -221
c-7 -8 -17 -15 -23 -15 -6 0 -2 7 9 15 25 19 30 19 14 0z m-323 -1217 c-3 -8
-6 -5 -6 6 -1 11 2 17 5 13 3 -3 4 -12 1 -19z"/>
<path d="M1690 6289 c0 -5 5 -7 10 -4 6 3 10 8 10 11 0 2 -4 4 -10 4 -5 0 -10
-5 -10 -11z"/>
<path d="M1724 6286 c-3 -8 -7 -22 -8 -31 -1 -9 -9 -21 -17 -26 -11 -7 -10 -9
6 -9 16 0 17 -2 5 -9 -8 -6 -18 -7 -23 -4 -5 3 -6 -4 -3 -15 6 -17 3 -19 -14
-15 -11 3 -20 0 -20 -6 0 -6 -8 -19 -17 -29 -26 -27 -63 -80 -63 -90 0 -5 -18
-25 -41 -45 -22 -20 -38 -41 -34 -47 3 -5 2 -10 -3 -10 -6 0 -15 -13 -21 -30
-5 -16 -15 -30 -20 -30 -6 0 -11 -9 -11 -19 0 -10 -7 -21 -15 -25 -8 -3 -15
-12 -15 -21 0 -8 -5 -15 -11 -15 -5 0 -15 -13 -20 -30 -6 -16 -15 -30 -20 -30
-5 0 -9 -8 -9 -19 0 -10 -8 -29 -18 -42 -10 -13 -26 -42 -36 -64 -9 -22 -21
-48 -26 -57 -6 -10 -10 -23 -10 -30 0 -6 -8 -21 -18 -32 -10 -12 -25 -47 -32
-78 -7 -32 -16 -55 -20 -53 -4 2 -5 -7 -2 -20 2 -14 0 -25 -5 -25 -5 0 -9 -10
-10 -22 -1 -11 -6 -24 -10 -27 -13 -10 -33 -73 -26 -84 3 -6 1 -7 -4 -4 -7 4
-11 -12 -12 -45 0 -28 -6 -57 -13 -65 -7 -9 -12 -52 -12 -114 -1 -54 -5 -99
-9 -99 -5 0 -5 -5 -1 -11 3 -6 0 -15 -7 -20 -9 -6 -10 -9 -2 -9 6 0 15 5 18
10 3 6 19 17 36 25 46 24 37 -5 -11 -35 -22 -13 -40 -29 -40 -34 0 -6 5 -5 12
2 21 21 30 13 10 -9 -16 -17 -18 -24 -8 -45 6 -13 16 -24 21 -24 6 0 4 -4 -3
-8 -7 -5 -10 -16 -6 -25 3 -9 10 -14 15 -11 5 3 9 -3 10 -13 0 -10 3 -13 6 -5
2 6 11 12 19 12 10 0 14 11 13 38 -1 47 11 124 23 138 5 8 2 18 -9 29 -16 16
-16 18 0 30 9 7 17 17 17 24 0 6 5 11 10 11 6 0 10 11 10 24 0 14 5 37 10 51
9 22 22 80 55 227 2 9 10 27 19 40 8 13 20 44 27 71 6 26 15 50 20 53 5 3 9
16 9 29 0 13 3 25 8 27 9 4 72 126 72 141 0 12 79 169 90 177 3 3 23 33 44 67
20 35 59 87 85 115 66 73 124 158 109 159 -7 1 -3 4 10 7 22 7 22 8 -10 24
-18 9 -42 19 -53 23 -17 5 -13 11 32 38 43 27 73 61 73 82 0 3 -20 5 -45 5
-30 0 -47 -5 -51 -14z"/>
<path d="M5168 6273 c6 -2 18 -2 25 0 6 3 1 5 -13 5 -14 0 -19 -2 -12 -5z"/>
<path d="M5368 6273 c6 -2 18 -2 25 0 6 3 1 5 -13 5 -14 0 -19 -2 -12 -5z"/>
<path d="M5228 6263 c6 -2 18 -2 25 0 6 3 1 5 -13 5 -14 0 -19 -2 -12 -5z"/>
<path d="M5428 6263 c6 -2 18 -2 25 0 6 3 1 5 -13 5 -14 0 -19 -2 -12 -5z"/>
<path d="M5560 6250 c34 -11 60 -11 35 0 -11 5 -29 8 -40 8 -16 0 -15 -2 5 -8z"/>
<path d="M3016 6235 c-11 -8 -15 -15 -9 -15 6 0 16 7 23 15 16 19 11 19 -14 0z"/>
<path d="M4888 6245 c-4 -4 4 -27 18 -52 13 -25 24 -52 24 -59 0 -7 4 -15 9
-18 12 -8 8 27 -4 36 -6 5 -5 12 4 20 8 8 11 8 7 1 -4 -7 1 -9 16 -5 15 4 19
2 13 -7 -6 -10 -2 -11 16 -6 35 11 42 28 19 46 -10 9 -16 19 -13 23 4 3 -2 6
-13 7 -20 1 -34 4 -69 14 -11 3 -23 3 -27 0z m52 -44 c0 -17 -18 -21 -24 -6
-3 9 0 15 9 15 8 0 15 -4 15 -9z"/>
<path d="M5658 6223 c7 -3 16 -2 19 1 4 3 -2 6 -13 5 -11 0 -14 -3 -6 -6z"/>
<path d="M3033 6205 c0 -8 4 -12 9 -9 5 3 6 10 3 15 -9 13 -12 11 -12 -6z"/>
<path d="M4831 6185 c-17 -20 -31 -39 -31 -44 0 -19 39 -41 73 -41 34 0 37 2
37 28 0 24 -32 92 -44 92 -2 0 -18 -16 -35 -35z m26 -67 c-3 -8 -6 -5 -6 6 -1
11 2 17 5 13 3 -3 4 -12 1 -19z"/>
<path d="M5056 6201 c10 -10 25 -16 32 -13 6 2 12 -2 12 -9 0 -11 2 -11 9 -1
6 10 10 10 21 -3 13 -16 40 -21 40 -7 0 8 -66 36 -87 37 -6 0 -15 4 -19 8 -4
4 -12 7 -17 7 -6 0 -2 -8 9 -19z"/>
<path d="M4070 6159 c-102 -12 -221 -59 -243 -95 -4 -8 -15 -14 -23 -14 -8 0
-17 -7 -20 -15 -4 -8 -10 -15 -14 -15 -5 0 -44 -23 -87 -52 -43 -29 -95 -61
-115 -71 -39 -20 -55 -44 -38 -61 5 -5 10 -14 10 -20 0 -5 -3 -6 -7 -3 -3 4
-15 0 -25 -10 -20 -18 -23 -12 -9 16 13 24 -13 21 -59 -7 -19 -12 -38 -22 -42
-22 -4 0 -9 -9 -13 -20 -3 -11 -9 -19 -13 -18 -13 4 -91 -75 -85 -86 3 -6 2
-8 -2 -3 -10 8 -65 -41 -65 -58 0 -7 -9 -20 -20 -30 -18 -16 -34 -42 -87 -140
-6 -11 -15 -31 -20 -45 -6 -14 -15 -36 -21 -50 -58 -138 -24 -430 69 -590 5
-8 21 -37 35 -65 15 -27 30 -51 35 -53 5 -2 9 -9 9 -15 0 -7 23 -39 50 -72 27
-33 60 -72 72 -87 12 -15 25 -25 30 -22 4 3 5 -3 1 -13 -3 -10 -3 -15 1 -11 5
4 19 -5 32 -20 14 -17 23 -22 24 -13 0 8 14 -5 30 -27 17 -23 33 -42 35 -42 8
0 -13 38 -40 75 -12 17 -26 37 -30 45 -17 30 24 -10 45 -44 16 -26 120 -125
120 -114 0 2 -29 33 -63 70 -35 36 -79 88 -96 115 -21 30 -30 39 -26 23 9 -28
-57 48 -114 134 -37 55 -95 189 -106 246 -10 50 -3 38 50 -85 46 -107 151
-283 162 -272 3 3 0 12 -6 19 -17 20 -54 77 -88 138 -33 58 -96 210 -90 216 2
2 25 -43 52 -102 78 -169 221 -389 254 -389 6 0 11 -4 12 -10 1 -16 31 -45 40
-39 5 3 7 -1 5 -8 -5 -15 68 -81 89 -81 8 0 12 -4 9 -8 -4 -8 125 -106 188
-143 48 -27 49 -41 2 -21 -33 14 -35 14 -23 -1 7 -9 22 -20 34 -25 15 -7 12
-8 -12 -3 -18 3 -33 1 -33 -4 0 -5 6 -9 13 -9 6 0 24 -4 40 -8 22 -6 26 -4 21
8 -10 27 15 29 109 8 191 -43 316 -61 452 -66 77 -2 122 0 100 4 -28 5 -6 7
75 8 128 0 335 14 307 21 -9 2 -15 8 -12 13 4 5 1 9 -4 9 -6 0 -11 -4 -11 -10
0 -5 -8 -10 -19 -10 -13 0 -18 6 -16 24 2 14 6 29 9 34 7 12 -47 29 -117 37
-51 7 -64 4 -115 -21 -31 -16 -60 -33 -64 -38 -4 -6 -12 -6 -20 1 -26 21 -107
45 -125 38 -26 -11 -53 -13 -53 -4 0 4 -9 11 -20 14 -28 9 -25 23 8 31 41 10
59 44 23 44 -17 0 -36 25 -33 42 1 4 -10 11 -25 15 -15 3 -33 12 -40 18 -14
14 -165 28 -288 25 -49 0 -94 -1 -100 -1 -30 0 -114 26 -137 42 -14 11 -30 19
-35 19 -8 0 -35 21 -137 108 -27 23 -56 42 -63 42 -7 0 -22 10 -34 23 -12 12
-19 15 -15 7 4 -8 -4 -1 -18 15 -14 17 -33 39 -43 51 -17 20 -21 31 -26 81 -1
11 -5 19 -9 17 -13 -8 -39 9 -34 23 3 8 1 11 -4 8 -6 -3 -10 1 -10 9 0 9 -4
16 -9 16 -5 0 -20 15 -32 33 -13 18 -16 26 -7 19 12 -10 17 -10 20 -1 3 8 31
-5 77 -35 40 -26 74 -46 76 -44 2 2 -39 39 -92 83 -52 44 -109 98 -126 120
-24 31 -19 28 24 -16 50 -51 141 -121 214 -164 30 -18 30 -18 -3 9 -18 15 -30
32 -27 37 4 5 -4 9 -16 9 -22 0 -22 0 -3 14 10 8 29 12 42 9 34 -8 26 5 -13
21 -19 8 -38 22 -41 30 -3 9 -10 13 -15 10 -5 -3 -9 -1 -9 5 0 6 -6 8 -14 5
-11 -4 -13 0 -9 18 3 13 2 20 -2 16 -23 -22 -100 155 -115 265 -11 72 -5 147
10 147 4 0 10 10 13 23 3 12 10 37 15 54 6 19 7 35 2 38 -13 8 -52 -121 -56
-185 -2 -30 -4 -64 -5 -75 0 -14 -3 -11 -10 10 -38 128 133 477 262 533 40 17
45 26 29 52 -15 24 20 30 42 8 16 -16 22 -17 34 -7 12 10 13 9 8 -5 -3 -9 -2
-16 4 -16 14 0 23 28 12 35 -6 4 -10 11 -10 17 0 6 8 4 18 -5 15 -13 21 -14
32 -4 8 6 7 3 -3 -9 -30 -36 -19 -35 33 2 28 20 48 40 44 45 -3 5 1 6 9 3 8
-3 56 11 107 30 52 19 126 43 167 52 43 11 68 21 61 25 -9 6 -5 11 12 19 42
18 -96 4 -181 -19 -113 -31 -236 -80 -298 -120 -13 -8 -31 -16 -40 -18 -54 -7
157 99 269 135 116 38 212 54 380 61 l165 8 -150 1 c-95 1 -179 -3 -230 -13
-104 -19 -110 -20 -179 -44 -74 -26 -95 -26 -36 0 70 31 203 60 340 74 69 7
110 13 93 14 -18 0 -33 5 -33 10 0 5 -11 12 -25 15 -37 9 -30 23 14 31 32 5
38 10 34 26 -4 14 0 19 13 19 11 0 14 3 9 9 -13 12 -118 18 -185 10z m-409
-284 c-106 -56 -146 -67 -72 -21 40 25 147 74 166 75 6 0 -37 -24 -94 -54z
m159 -19 c0 -2 -9 -6 -20 -9 -11 -3 -18 -1 -14 4 5 9 34 13 34 5z m-300 -96
c0 -5 -13 -16 -29 -24 -39 -21 -163 -157 -156 -174 2 -7 1 -10 -5 -7 -11 7
-32 -29 -22 -40 4 -5 2 -5 -5 -1 -15 8 -78 -122 -86 -179 -5 -30 -4 -35 3 -20
9 18 10 17 5 -5 -3 -14 -8 -50 -12 -80 l-8 -55 -6 40 c-5 30 -7 19 -8 -43 -1
-60 5 -99 19 -143 12 -34 19 -63 17 -65 -2 -2 -16 20 -31 50 -20 39 -29 75
-33 131 -6 81 -19 89 -26 15 -3 -39 -4 -36 -5 17 -2 56 10 142 25 183 4 12 7
11 13 -5 8 -19 9 -19 9 1 1 29 40 114 51 114 6 0 10 7 10 16 0 8 4 13 9 10 5
-3 11 1 14 8 4 11 0 13 -15 11 -11 -3 -21 -6 -22 -7 -1 -2 -15 -29 -31 -61
-16 -32 -31 -53 -33 -48 -6 18 52 113 75 124 13 6 23 13 23 16 1 3 12 20 26
36 20 23 23 25 14 7 -18 -37 -7 -34 17 3 19 29 20 33 5 28 -9 -3 -4 5 13 18
16 13 33 24 36 24 4 0 11 4 16 9 5 5 2 6 -6 1 -9 -5 -12 -3 -9 6 3 8 13 14 23
14 10 0 20 6 23 14 3 10 0 11 -9 5 -11 -6 -11 -4 1 12 22 29 24 30 17 11 -6
-15 3 -12 35 12 44 32 58 38 58 21z m-220 -277 c0 -5 -10 -19 -21 -33 l-20
-25 16 33 c15 30 25 41 25 25z m-55 -110 c-9 -15 -13 -19 -10 -8 4 11 10 29
13 40 3 11 7 14 9 8 3 -7 -3 -24 -12 -40z m875 -1329 c47 -8 98 -15 113 -16
39 -1 45 -18 7 -18 -44 0 -249 47 -215 49 6 0 48 -6 95 -15z m315 -18 c18 -10
16 -11 -17 -14 -20 -2 -61 2 -90 8 -29 6 -68 13 -87 15 -18 3 -36 7 -39 10
-11 11 213 -8 233 -19z"/>
<path d="M5190 6152 c8 -5 31 -12 50 -15 22 -4 29 -3 20 2 -21 12 -90 25 -70
13z"/>
<path d="M4985 6140 c-13 -6 -15 -9 -5 -9 8 0 22 4 30 9 18 12 2 12 -25 0z"/>
<path d="M4802 6086 c7 -8 17 -12 22 -9 4 3 2 9 -5 14 -22 13 -31 11 -17 -5z"/>
<path d="M5070 6072 c0 -12 -5 -22 -11 -22 -6 0 -9 -7 -5 -15 3 -9 0 -15 -9
-15 -8 0 -15 -7 -15 -16 0 -8 -5 -12 -10 -9 -6 3 -13 -1 -16 -10 -4 -9 -18
-21 -31 -26 -14 -5 -23 -14 -21 -20 2 -6 54 -39 115 -72 82 -46 135 -84 200
-145 48 -46 79 -79 68 -74 -11 6 -31 22 -44 36 -14 14 -29 26 -35 26 -6 0 8
-19 31 -42 130 -136 193 -266 212 -436 9 -81 21 -121 21 -69 0 89 -46 292 -82
360 -5 9 -6 17 -3 17 14 0 75 -151 84 -210 14 -87 14 -207 -1 -271 -11 -46
-13 -50 -20 -28 -6 21 -7 19 -5 -8 2 -18 0 -30 -4 -27 -5 2 -13 -13 -19 -34
-5 -22 -19 -51 -31 -66 -11 -14 -17 -30 -14 -36 4 -6 1 -9 -6 -8 -6 2 -14 -3
-17 -11 -3 -9 0 -11 8 -6 9 6 11 4 6 -4 -5 -7 -11 -10 -14 -7 -9 10 -41 -25
-36 -39 3 -7 1 -16 -5 -20 -7 -4 -8 0 -4 11 3 9 -22 -4 -58 -31 -57 -42 -112
-77 -99 -62 3 3 40 32 82 64 152 116 197 208 198 398 0 139 -58 325 -132 425
-89 120 -194 210 -244 210 -13 0 -14 -3 -5 -14 9 -10 9 -16 1 -21 -6 -4 -17 0
-23 8 -14 18 -121 82 -112 67 3 -6 23 -19 43 -29 20 -11 47 -31 60 -46 13 -15
30 -24 37 -21 8 3 12 0 9 -8 -5 -13 27 -56 43 -56 5 0 15 -16 23 -35 8 -19 17
-35 21 -35 4 0 10 -16 13 -35 4 -20 11 -33 15 -30 5 3 16 -21 24 -53 13 -51
15 -53 16 -22 0 19 -4 52 -10 73 -18 67 -3 64 17 -3 10 -35 20 -56 22 -47 7
34 21 16 16 -20 -3 -31 -2 -34 6 -18 22 44 3 -119 -20 -170 -47 -104 -74 -151
-112 -189 -21 -22 -38 -45 -38 -50 -1 -36 -114 -109 -188 -122 -20 -4 -42 -11
-49 -16 -7 -5 -21 -7 -31 -4 -15 5 -21 -2 -32 -34 -12 -35 -40 -75 -40 -56 0
4 -7 0 -16 -8 -18 -18 -38 -20 -64 -6 -13 7 -29 5 -54 -5 -20 -9 -36 -12 -36
-8 0 4 -6 -2 -14 -12 -12 -17 -16 -17 -31 -5 -18 15 -127 32 -119 18 7 -10
-42 -21 -69 -15 -12 3 -38 10 -57 16 -28 9 -31 8 -20 -2 16 -14 56 -28 138
-48 33 -8 48 -16 39 -20 -15 -9 -135 18 -157 35 -18 14 -67 31 -143 48 -38 8
-59 18 -63 30 -3 10 -12 18 -19 18 -20 0 -83 45 -116 83 -63 73 -80 97 -68 97
6 0 -9 16 -34 35 -26 20 -52 46 -58 58 -11 19 -8 18 26 -8 26 -19 52 -30 78
-31 22 -1 42 -7 46 -12 3 -5 41 -13 84 -17 42 -4 80 -11 83 -16 3 -5 30 -9 60
-9 41 0 56 4 61 16 15 40 -122 114 -188 100 -36 -7 -90 13 -141 54 -20 17 -42
30 -49 30 -7 0 -9 8 -6 21 6 21 5 21 -19 -2 -33 -31 -39 -19 -14 27 l22 38
-24 -16 c-52 -34 -87 -163 -68 -252 19 -94 127 -285 152 -270 4 3 8 -1 8 -9 0
-21 97 -100 111 -91 7 4 9 3 6 -3 -7 -11 101 -84 176 -119 20 -10 37 -21 37
-26 0 -4 -17 -9 -37 -10 l-38 -1 45 -8 c27 -4 -17 -6 -110 -4 -164 4 -157 -5
20 -24 98 -11 260 -6 295 9 11 5 54 13 95 18 70 9 67 9 -40 5 -91 -4 -119 -2
-134 10 -18 13 -3 14 131 13 84 0 144 -4 135 -9 -48 -21 171 7 293 38 75 20
139 34 141 32 2 -2 -15 -10 -38 -17 -24 -7 -62 -18 -86 -26 -24 -7 -92 -20
-150 -29 -59 -9 -130 -21 -158 -27 -29 -6 -56 -8 -62 -4 -6 3 -12 1 -14 -6 -3
-7 -41 -13 -109 -16 -57 -2 -106 -6 -108 -8 -14 -14 48 -16 138 -5 58 8 133
14 166 15 61 1 223 38 284 64 19 8 46 12 65 8 22 -4 27 -3 16 4 -12 8 -8 10
15 11 46 1 69 7 73 19 2 5 8 8 12 5 10 -6 160 65 160 76 0 4 14 10 30 14 17 4
28 11 24 16 -3 5 -1 9 4 9 9 0 108 74 134 101 8 8 23 28 33 44 14 24 10 22
-23 -12 -58 -61 -66 -57 -20 9 20 28 23 43 9 33 -5 -3 1 21 14 52 39 99 67
201 60 222 -4 13 -2 21 5 21 17 0 7 191 -13 255 -9 28 -33 73 -54 101 -43 58
-114 170 -125 197 -15 35 22 16 87 -46 36 -35 68 -61 70 -58 3 2 5 -3 5 -12 0
-9 4 -17 9 -17 4 0 6 -12 4 -27 -4 -23 -2 -25 7 -13 9 12 11 6 7 -28 -4 -29
-1 -47 9 -56 8 -8 11 -22 8 -30 -3 -9 -4 -16 0 -16 3 0 10 15 16 33 l10 32 -3
-33 c-3 -21 2 -37 15 -49 10 -9 20 -14 22 -12 19 19 1 199 -20 199 -8 0 -14 9
-14 19 0 33 -60 124 -110 166 -26 22 -45 43 -43 48 2 4 -1 7 -7 7 -7 0 -54 21
-106 46 -65 32 -102 57 -121 83 -39 51 -83 96 -84 85 0 -5 -7 9 -14 31 -14 38
-14 38 -12 8 2 -18 0 -30 -3 -28 -4 2 -14 -11 -23 -30 -9 -19 -24 -35 -33 -35
-13 0 -12 4 5 25 21 27 37 82 27 92 -3 4 -6 -3 -6 -15z m-1079 -1349 c13 -16
12 -17 -3 -4 -17 13 -22 21 -14 21 2 0 10 -8 17 -17z m1294 -13 c-3 -5 -16
-15 -28 -21 -19 -9 -19 -8 3 10 28 23 34 26 25 11z m-540 -11 c-19 -5 12 -6
80 -3 73 3 107 2 100 -5 -24 -24 -236 -40 -280 -21 -17 7 -16 9 10 10 17 0 39
7 49 15 11 8 31 14 45 14 25 -1 25 -2 -4 -10z m385 -64 c-14 -8 -32 -14 -40
-14 -8 0 -1 6 15 14 40 18 57 18 25 0z m8 -21 c-8 -7 -140 -35 -145 -30 -2 2
16 8 39 14 37 10 56 14 102 21 5 0 7 -2 4 -5z m-183 -49 c-33 -14 -113 -30
-104 -21 6 6 109 35 124 35 6 -1 -3 -6 -20 -14z m-515 -91 c0 -2 -11 -4 -25
-4 -14 0 -25 4 -25 9 0 4 11 6 25 3 14 -2 25 -6 25 -8z"/>
<path d="M5435 6071 c45 -23 55 -25 55 -12 0 5 -10 11 -22 14 -13 3 -34 8 -48
12 -14 3 -8 -3 15 -14z"/>
<path d="M4827 6062 c-27 -29 -20 -35 13 -12 17 12 38 19 46 16 8 -3 12 -2 9
4 -10 16 -51 11 -68 -8z"/>
<path d="M2844 6057 c-6 -7 -29 -28 -51 -47 -22 -20 -42 -44 -46 -54 -4 -10
-16 -20 -26 -23 -22 -6 -17 -33 6 -33 10 0 13 6 9 16 -4 11 -2 15 8 11 8 -3
20 1 27 9 10 12 9 13 -7 8 -14 -5 -16 -4 -8 5 6 6 21 13 33 16 38 7 54 25 39
43 -12 13 -10 14 11 3 13 -7 21 -8 17 -3 -3 6 -2 22 4 36 10 27 3 33 -16 13z"/>
<path d="M2769 6023 l-34 -38 38 34 c20 19 37 36 37 38 0 8 -8 0 -41 -34z"/>
<path d="M5535 6036 c11 -9 25 -19 30 -23 14 -11 54 -29 90 -39 17 -5 30 -15
30 -21 0 -17 12 -26 25 -18 13 8 -71 75 -95 75 -9 0 -13 4 -10 10 3 5 0 7 -9
4 -8 -3 -29 2 -48 11 -26 13 -29 13 -13 1z"/>
<path d="M4856 6013 c-6 -14 -5 -15 5 -6 7 7 10 15 7 18 -3 3 -9 -2 -12 -12z"/>
<path d="M790 5970 c-9 -6 -10 -10 -3 -10 6 0 19 -3 27 -6 12 -5 15 -2 10 10
-7 18 -13 20 -34 6z"/>
<path d="M2085 5970 c-3 -6 1 -7 9 -4 18 7 21 14 7 14 -6 0 -13 -4 -16 -10z"/>
<path d="M6320 5950 c19 -17 44 -36 55 -42 20 -11 20 -11 1 10 -10 12 -35 31
-55 42 l-36 21 35 -31z"/>
<path d="M5723 5939 c-13 -13 33 -65 89 -99 18 -11 29 -20 24 -20 -5 0 -1 -9
9 -20 10 -12 25 -18 32 -16 7 3 13 1 13 -4 0 -5 9 -11 19 -15 17 -5 35 -37 32
-57 0 -4 6 -5 14 -2 12 5 10 11 -7 35 -12 16 -24 29 -28 29 -3 0 -14 14 -23
30 -10 17 -25 30 -33 30 -8 0 -13 5 -11 12 1 7 -5 12 -13 13 -8 1 -14 6 -12
13 1 7 -3 12 -8 12 -6 0 -20 11 -32 25 -12 14 -27 25 -34 25 -7 0 -14 5 -16
10 -2 7 -7 7 -15 -1z m157 -140 c0 -6 -4 -7 -10 -4 -5 3 -10 11 -10 16 0 6 5
7 10 4 6 -3 10 -11 10 -16z"/>
<path d="M2692 5889 c2 -7 10 -15 17 -17 8 -3 12 1 9 9 -2 7 -10 15 -17 17 -8
3 -12 -1 -9 -9z"/>
<path d="M4920 5897 c0 -2 25 -16 55 -31 30 -14 55 -31 55 -36 0 -6 5 -8 12
-4 6 4 17 -1 24 -10 7 -10 17 -15 23 -11 15 9 14 28 -1 23 -7 -3 -19 3 -28 13
-8 9 -35 24 -60 32 -25 8 -53 18 -62 22 -10 4 -18 5 -18 2z"/>
<path d="M6350 5896 c0 -3 9 -10 20 -16 11 -6 20 -8 20 -6 0 3 -9 10 -20 16
-11 6 -20 8 -20 6z"/>
<path d="M6403 5893 c9 -14 87 -77 87 -70 0 3 -21 22 -47 43 -26 21 -44 33
-40 27z"/>
<path d="M2662 5850 c-7 -11 -9 -20 -4 -20 4 0 13 9 20 20 7 11 9 20 4 20 -4
0 -13 -9 -20 -20z"/>
<path d="M1989 5833 c-13 -16 -12 -17 4 -4 9 7 17 15 17 17 0 8 -8 3 -21 -13z"/>
<path d="M2535 5840 c-3 -5 -1 -10 4 -10 6 0 11 5 11 10 0 6 -2 10 -4 10 -3 0
-8 -4 -11 -10z"/>
<path d="M6530 5816 c0 -2 8 -10 18 -17 15 -13 16 -12 3 4 -13 16 -21 21 -21
13z"/>
<path d="M5195 5757 c28 -25 52 -43 54 -41 6 5 -56 60 -84 75 -11 6 3 -9 30
-34z"/>
<path d="M3556 5768 c3 -7 17 -22 31 -32 l26 -19 -23 31 c-24 32 -44 43 -34
20z"/>
<path d="M1865 5720 c-3 -5 -2 -10 4 -10 5 0 13 5 16 10 3 6 2 10 -4 10 -5 0
-13 -4 -16 -10z"/>
<path d="M2432 5694 c-7 -14 -8 -23 -2 -19 15 9 32 45 22 45 -5 0 -14 -12 -20
-26z"/>
<path d="M2555 5700 c-3 -5 -1 -10 4 -10 6 0 11 5 11 10 0 6 -2 10 -4 10 -3 0
-8 -4 -11 -10z"/>
<path d="M4415 5704 c144 -13 253 -45 313 -91 18 -14 36 -23 38 -20 7 7 -59
57 -75 57 -6 0 -16 11 -21 24 -5 14 -17 25 -27 26 -84 4 -259 7 -228 4z"/>
<path d="M2506 5673 c-6 -14 -5 -15 5 -6 7 7 10 15 7 18 -3 3 -9 -2 -12 -12z"/>
<path d="M3432 5635 c-28 -30 -49 -55 -46 -55 3 0 -4 -13 -16 -29 -29 -41 -52
-109 -39 -117 12 -7 17 -3 43 40 53 84 62 96 72 96 15 0 38 46 30 59 -4 7 -1
9 8 5 16 -6 32 29 21 46 -11 17 -21 11 -73 -45z m-69 -160 c-3 -9 -8 -14 -10
-11 -3 3 -2 9 2 15 9 16 15 13 8 -4z"/>
<path d="M1825 5668 c-5 -5 -19 -15 -30 -23 -11 -7 -17 -16 -14 -20 4 -3 19 5
34 20 16 14 26 27 24 29 -2 2 -8 0 -14 -6z"/>
<path d="M4405 5671 c-4 -8 17 -11 65 -11 91 0 195 -31 239 -70 18 -17 28 -30
23 -30 -5 0 -17 9 -27 20 -22 24 -94 48 -165 56 -30 3 -58 8 -61 10 -4 2 -9
-3 -13 -11 -5 -15 17 -20 72 -17 12 0 20 -3 17 -9 -4 -5 6 -9 20 -9 15 0 24
-4 20 -10 -3 -5 1 -10 10 -10 40 0 67 -169 33 -207 -10 -11 -18 -25 -18 -33 0
-16 -43 -57 -67 -63 -10 -2 0 -7 25 -12 52 -9 61 -21 28 -36 -35 -16 -49 -95
-20 -116 24 -18 39 -17 24 2 -7 9 -11 18 -8 20 8 9 38 -6 32 -16 -3 -5 2 -6
10 -3 9 3 16 10 16 15 0 5 8 9 19 9 16 0 18 7 17 55 -1 43 2 55 14 56 8 1 30
2 49 4 18 1 36 7 40 13 3 5 6 42 6 80 0 39 3 68 8 65 15 -9 6 53 -13 87 -11
19 -19 31 -20 26 0 -5 -7 -3 -15 4 -9 7 -14 19 -11 26 8 21 -64 73 -129 93
-76 23 -210 37 -220 22z m285 -445 c0 -3 -4 -8 -10 -11 -5 -3 -10 -1 -10 4 0
6 5 11 10 11 6 0 10 -2 10 -4z m-3 -62 c-3 -3 -12 -4 -19 -1 -8 3 -5 6 6 6 11
1 17 -2 13 -5z m-37 -24 c0 -5 -2 -10 -4 -10 -3 0 -8 5 -11 10 -3 6 -1 10 4
10 6 0 11 -4 11 -10z"/>
<path d="M4253 5610 c-13 -5 -23 -11 -23 -13 0 -8 50 5 56 14 6 11 -4 11 -33
-1z"/>
<path d="M1730 5577 c0 -8 -11 -24 -25 -37 -38 -35 -59 -81 -43 -92 8 -6 5 -7
-9 -3 -17 5 -22 3 -17 -8 2 -7 -2 -20 -11 -27 -8 -7 -15 -19 -15 -27 0 -8 -4
-11 -10 -8 -5 3 -10 4 -10 1 0 -2 -3 -13 -6 -23 -5 -15 -4 -15 5 -3 7 10 11
11 11 3 0 -7 -9 -17 -19 -23 -13 -7 -17 -16 -14 -31 5 -17 3 -20 -7 -14 -10 6
-12 4 -7 -9 4 -10 3 -15 -3 -11 -6 4 -10 -7 -10 -25 0 -18 -4 -29 -10 -25 -5
3 -10 -3 -10 -14 0 -11 -11 -44 -24 -73 -13 -29 -26 -60 -29 -68 -3 -8 -5 -4
-5 10 1 14 -6 38 -15 54 l-15 29 -22 -69 c-12 -38 -33 -136 -47 -219 -22 -131
-24 -172 -21 -325 2 -96 7 -180 11 -187 5 -8 19 -7 54 3 70 21 74 12 10 -19
-56 -26 -57 -27 -57 -69 0 -53 23 -162 51 -246 12 -35 19 -65 17 -68 -5 -4
-63 171 -73 220 -3 15 -8 26 -11 24 -19 -20 103 -381 187 -558 39 -80 66 -140
60 -135 -5 6 -36 64 -69 130 -54 109 -83 178 -127 305 -8 25 -12 32 -9 15 18
-83 20 -104 13 -99 -5 3 -9 14 -9 25 0 11 -4 17 -10 14 -5 -3 -7 0 -5 8 3 7 1
24 -4 38 -5 13 -10 17 -11 9 0 -9 -5 -6 -13 9 -13 27 -47 37 -60 18 -4 -7 -5
1 -1 17 5 21 4 27 -5 22 -7 -5 -11 0 -11 13 0 12 -4 21 -10 21 -15 0 -12 30 3
30 11 1 -69 41 -119 60 -19 7 -20 5 -18 -31 1 -22 5 -50 8 -62 3 -13 10 -64
16 -115 9 -86 62 -294 80 -317 4 -5 11 -21 15 -35 4 -14 20 -53 36 -87 15 -34
33 -81 40 -105 7 -24 17 -49 23 -57 9 -12 8 -12 -11 0 -13 8 -23 19 -23 25 0
6 -6 17 -14 23 -7 6 -14 29 -14 51 0 22 -5 47 -10 57 -7 12 -10 2 -9 -38 0
-30 5 -57 11 -61 5 -4 10 -23 10 -42 0 -20 3 -31 7 -25 5 8 8 8 13 0 4 -6 4
-11 -1 -11 -4 0 0 -5 10 -11 9 -5 17 -18 17 -27 1 -26 26 -56 34 -40 3 7 4 1
1 -14 -4 -20 0 -30 15 -38 11 -6 23 -22 26 -35 3 -14 10 -26 15 -26 5 -1 13
-2 18 -3 5 0 13 -5 18 -10 5 -5 3 -6 -4 -2 -15 8 -17 -3 -5 -22 5 -7 15 -10
23 -7 9 3 24 -3 34 -15 22 -24 14 -27 -10 -3 -14 14 -18 14 -25 2 -7 -10 -3
-16 10 -21 11 -4 20 -14 20 -22 0 -7 7 -17 16 -20 9 -3 14 -13 11 -21 -4 -9
-1 -12 9 -8 10 3 12 0 9 -10 -4 -8 1 -17 12 -21 15 -6 15 -8 3 -16 -12 -8 -10
-10 8 -10 13 0 21 -4 18 -9 -6 -10 16 -61 26 -61 9 0 68 -57 68 -65 0 -4 16
-21 35 -39 19 -19 35 -38 35 -44 0 -5 9 -12 20 -15 11 -3 25 -19 31 -36 6 -17
17 -31 24 -31 7 0 26 -14 42 -30 15 -17 33 -30 39 -30 6 0 16 -11 22 -25 6
-14 18 -25 27 -25 8 0 38 -20 67 -45 74 -64 200 -155 215 -155 7 0 20 -11 28
-24 9 -13 30 -30 48 -37 18 -7 46 -23 64 -36 17 -12 39 -23 47 -23 8 0 31 -9
51 -20 20 -11 41 -20 47 -20 6 0 26 -12 45 -26 19 -14 41 -23 49 -20 8 3 22 1
32 -4 72 -40 143 -63 202 -66 36 -2 76 -6 90 -10 14 -4 28 -8 33 -9 4 -2 10
-4 15 -5 4 -2 32 -4 62 -6 30 -1 66 -5 80 -7 14 -2 37 -5 52 -6 15 0 34 -8 43
-17 9 -10 28 -18 42 -20 14 -1 84 -32 156 -67 73 -36 170 -79 217 -97 153 -58
264 -102 320 -128 l55 -25 -30 -9 c-16 -4 -36 -6 -43 -3 -7 3 -20 1 -30 -4 -9
-5 -46 -17 -82 -25 -36 -9 -73 -18 -84 -21 -10 -2 -24 -9 -32 -16 -8 -6 -44
-18 -81 -26 -37 -7 -72 -18 -77 -23 -6 -6 -19 -10 -30 -10 -12 -1 -37 -9 -56
-18 -30 -15 -35 -22 -35 -54 -1 -20 3 -34 7 -32 17 11 28 -8 13 -22 -25 -26
-193 -16 -295 16 -20 7 -16 9 25 10 41 1 45 3 24 10 -14 4 -50 23 -80 42 -62
39 -110 60 -71 30 13 -9 35 -27 50 -38 l26 -22 -36 3 c-48 4 -80 14 -74 24 3
4 -23 8 -57 7 -34 0 -88 5 -119 10 -32 6 -55 7 -52 2 3 -4 15 -8 27 -9 20 -1
20 -2 -3 -9 l-25 -8 25 -2 c14 0 45 -9 70 -18 43 -17 45 -19 42 -52 -2 -19 -8
-39 -14 -45 -7 -7 -9 -3 -5 13 4 18 3 21 -7 13 -7 -6 -15 -8 -19 -5 -3 3 -3
-3 0 -14 4 -16 -1 -21 -27 -27 -17 -4 -34 -13 -37 -21 -3 -8 -11 -14 -19 -14
-8 0 -14 -7 -14 -15 0 -9 9 -15 25 -15 l26 0 -23 -31 c-17 -23 -20 -32 -10
-38 11 -6 10 -19 -5 -62 -9 -30 -16 -58 -15 -63 2 -5 -5 -6 -14 -2 -12 4 -15
2 -10 -9 3 -8 9 -22 13 -32 4 -11 3 -14 -5 -9 -7 4 -12 2 -12 -4 0 -6 10 -15
23 -20 12 -5 18 -9 12 -10 -5 -1 -1 -5 10 -9 11 -5 20 -12 21 -17 0 -5 6 -22
14 -39 21 -51 25 -168 6 -206 -9 -17 -16 -38 -16 -46 0 -8 -11 -38 -24 -66
-13 -29 -31 -68 -40 -87 -9 -19 -25 -51 -36 -70 -12 -19 -32 -55 -46 -80 -13
-25 -35 -63 -48 -85 -14 -22 -46 -77 -71 -122 -25 -45 -50 -85 -55 -88 -22
-14 -9 -35 21 -35 69 0 106 20 145 79 21 31 45 65 54 76 10 11 26 36 36 55 10
19 32 48 48 65 25 26 28 27 23 8 -3 -15 -1 -20 9 -16 8 3 14 -1 14 -8 0 -11 3
-11 11 1 8 12 9 11 4 -6 -4 -16 1 -28 20 -42 14 -11 34 -40 45 -65 11 -25 24
-47 29 -49 4 -2 20 -22 35 -46 15 -23 31 -40 36 -37 5 3 11 1 15 -5 4 -7 821
-10 2499 -10 l2493 0 49 59 c27 33 61 64 77 70 21 8 27 16 27 39 0 16 7 35 15
42 8 7 15 21 15 31 0 21 26 26 33 7 2 -7 8 76 12 185 7 197 0 1484 -9 1522 -2
11 -5 38 -7 60 -1 27 -3 32 -6 16 l-5 -23 -14 27 c-8 15 -14 32 -14 38 0 6
-10 21 -23 32 -13 11 -32 33 -42 48 -11 17 -24 26 -33 22 -21 -8 -41 12 -36
38 2 12 2 16 -2 10 -8 -18 -31 -16 -38 2 -3 8 -12 15 -21 15 -9 0 -14 8 -12
22 1 17 -3 22 -15 20 -10 -2 -18 3 -18 11 0 8 -12 18 -26 21 -14 4 -36 19 -49
34 -21 24 -26 25 -44 14 -19 -11 -21 -10 -21 8 0 11 -5 20 -11 20 -5 0 -8 4
-5 9 10 16 -26 35 -71 38 -24 2 -50 8 -56 13 -28 23 -103 70 -113 70 -7 0 -15
-10 -19 -23 -8 -22 -8 -22 -12 3 -5 29 -23 52 -23 29 0 -8 -3 -10 -8 -4 -10
15 -49 35 -67 35 -8 0 -15 7 -15 15 0 8 -6 15 -12 15 -10 0 -9 3 1 9 9 6 0 11
-30 16 -24 4 -64 20 -88 36 -51 33 -59 35 -67 14 -4 -8 -10 -15 -14 -15 -4 0
8 37 26 83 19 45 33 91 33 102 -1 17 -2 17 -6 3 -2 -10 -9 -18 -14 -18 -5 0
-9 -6 -9 -14 0 -7 -7 -19 -15 -26 -13 -11 -15 -10 -9 6 3 10 10 28 14 39 8 20
36 136 45 185 2 14 8 44 13 68 5 23 8 42 6 42 -1 0 3 11 10 25 7 14 12 43 11
65 -1 22 2 40 6 40 5 0 9 6 9 13 0 6 7 24 14 39 8 15 11 30 7 33 -5 2 -14 -8
-20 -23 -23 -50 -73 -122 -82 -117 -12 8 -41 -53 -33 -68 4 -7 4 -9 0 -5 -5 4
-44 -43 -88 -105 -94 -132 -297 -340 -322 -331 -18 7 -22 24 -6 24 6 0 10 -5
10 -12 0 -6 16 5 35 25 31 32 34 40 25 58 -10 18 -10 19 8 10 17 -9 19 -6 20
22 1 23 11 40 41 67 36 31 48 54 50 98 1 6 7 12 15 12 15 0 86 87 86 106 0 6
7 15 16 18 10 4 14 14 11 25 -3 12 0 18 7 15 6 -2 25 26 43 64 17 37 41 87 53
112 20 43 51 124 54 145 1 6 7 20 14 31 6 12 14 36 17 55 3 19 13 44 21 56 8
13 15 35 15 50 1 16 10 47 20 70 10 23 22 60 25 83 4 23 12 47 18 53 6 7 11
46 11 89 0 43 3 78 6 78 13 0 20 70 9 91 -9 15 -9 24 -1 32 17 17 13 27 -6 20
-14 -4 -12 1 8 23 52 60 53 63 34 84 -9 10 -14 24 -10 29 3 6 4 11 0 11 -3 0
-10 -10 -14 -22 -9 -22 -9 -22 -17 -4 -5 13 -3 21 4 24 7 2 12 8 12 14 0 6 -7
8 -14 5 -10 -4 -13 -1 -9 9 3 8 11 13 18 10 13 -5 12 79 -2 194 -3 30 -5 67
-4 82 1 14 -2 29 -8 33 -6 3 -11 34 -12 68 0 46 -3 57 -10 42 -6 -14 -7 -3 -3
33 4 33 2 52 -4 52 -15 0 -21 -13 -27 -55 -8 -62 -15 -53 -16 21 -1 38 -3 58
-6 44 -22 -144 -54 -268 -92 -355 -22 -49 -85 -171 -96 -185 -7 -8 -19 -28
-28 -45 -8 -16 -23 -40 -34 -52 -10 -12 -25 -30 -33 -40 -85 -103 -113 -135
-162 -185 -32 -32 -59 -58 -62 -58 -5 0 -59 -45 -105 -90 -20 -19 -56 -47 -79
-63 -23 -15 -42 -32 -42 -38 0 -6 -6 -9 -14 -6 -8 3 -16 3 -18 -1 -15 -36
-250 -159 -368 -194 -19 -6 -44 -15 -55 -21 -11 -6 -28 -12 -38 -14 -9 -2 -43
-12 -75 -24 -69 -25 -265 -71 -426 -99 -72 -12 -217 -25 -365 -32 -135 -7
-232 -15 -216 -18 l30 -6 -38 -8 c-21 -4 -46 -14 -56 -23 -17 -14 -18 -19 -5
-49 20 -48 17 -52 -12 -17 -30 37 -102 58 -170 50 -56 -6 -56 8 -1 33 23 11
35 20 27 20 -12 0 -12 2 -2 9 10 6 8 10 -10 13 -65 15 -178 37 -213 43 -97 16
-498 116 -544 136 -73 31 -57 34 23 4 36 -14 79 -25 94 -24 18 0 9 5 -28 15
-106 28 -348 122 -436 169 -26 14 -53 25 -59 25 -7 0 -18 7 -25 15 -19 23 -9
19 108 -35 149 -69 285 -120 502 -188 l35 -11 -35 4 c-32 4 -31 3 10 -11 25
-8 59 -12 75 -9 20 3 25 2 16 -4 -10 -6 -5 -11 20 -16 19 -3 85 -17 146 -31
62 -13 125 -22 140 -19 17 3 21 2 11 -2 -10 -5 28 -8 82 -8 55 0 100 3 100 7
0 4 -22 25 -50 47 -60 48 -135 74 -215 77 -83 2 -163 12 -184 24 -10 5 -36 9
-58 8 -22 0 -49 5 -61 11 -11 6 -34 11 -51 11 -16 0 -31 5 -33 11 -2 5 -24 12
-48 15 -25 3 -72 14 -104 25 -33 10 -68 19 -78 19 -10 0 -18 4 -18 9 0 9 -92
26 -123 23 -10 -1 -15 3 -12 8 3 6 -2 10 -13 10 -10 0 -22 3 -26 7 -11 11 -79
32 -88 27 -4 -3 -5 3 -1 12 4 12 3 15 -6 10 -7 -5 -17 -2 -24 6 -7 8 -28 21
-47 28 -19 8 -37 16 -40 20 -10 11 -61 30 -55 20 3 -6 -1 -7 -9 -4 -9 3 -13
11 -9 17 4 6 1 7 -7 2 -7 -4 -15 -3 -19 2 -7 10 -117 63 -131 63 -6 0 -10 5
-10 10 0 6 -10 10 -22 10 -19 0 -15 -5 20 -26 43 -26 50 -38 30 -50 -6 -4 -8
-3 -5 3 4 6 -4 18 -18 27 -31 20 -57 21 -31 1 11 -8 15 -15 10 -15 -15 0 -65
55 -57 63 3 4 0 7 -8 7 -18 0 -81 59 -74 70 3 4 -3 14 -13 21 -15 13 -16 12
-3 -3 7 -10 9 -18 3 -18 -5 0 -16 10 -25 23 -8 12 -18 19 -21 16 -4 -3 15 -30
41 -59 29 -33 39 -49 25 -41 -12 6 -22 15 -22 19 -1 4 -19 27 -41 51 -22 24
-37 36 -33 25 11 -31 83 -102 180 -175 85 -64 94 -69 118 -58 25 12 26 35 1
25 -9 -3 -11 2 -8 15 5 16 8 17 17 6 17 -21 67 -49 74 -42 4 3 0 10 -8 15 -8
5 -12 11 -9 14 5 5 69 -51 69 -61 0 -3 -12 2 -26 12 -15 9 -23 12 -20 6 10
-15 -7 -14 -22 1 -7 7 -12 8 -12 2 0 -6 -13 -9 -29 -6 -16 2 -32 -1 -35 -7 -5
-7 -1 -8 11 -4 17 6 17 6 0 -14 -16 -18 -16 -21 -2 -26 8 -4 23 -4 33 -1 14 5
14 4 3 -4 -12 -9 -12 -13 -2 -26 19 -22 50 -4 47 28 -2 17 1 23 10 19 8 -3 14
-12 14 -21 0 -8 6 -23 14 -31 18 -20 10 -75 -10 -67 -11 4 -11 2 -1 -14 14
-23 23 -25 31 -7 5 9 7 9 12 -1 7 -15 146 -86 188 -96 20 -5 26 -10 17 -15 -8
-6 0 -14 26 -26 21 -10 88 -41 148 -70 61 -29 127 -58 148 -65 20 -6 37 -15
37 -20 0 -7 22 -15 70 -25 8 -2 29 -9 45 -16 17 -6 37 -13 45 -14 15 -3 26 -6
125 -40 55 -19 151 -39 260 -55 39 -6 112 -21 163 -34 50 -12 92 -18 92 -13 0
5 7 4 15 -3 8 -7 12 -16 9 -21 -11 -19 12 -8 35 16 13 14 29 25 37 25 8 0 14
7 14 15 0 20 42 20 117 -1 32 -9 81 -17 108 -19 80 -6 318 -17 343 -16 14 0
21 -3 16 -10 -9 -15 32 -2 74 23 41 25 50 19 17 -12 -28 -27 -32 -40 -11 -40
8 0 18 -5 22 -12 4 -7 3 -8 -4 -4 -8 5 -12 -1 -12 -16 0 -18 2 -20 10 -8 11
17 11 16 16 -22 1 -16 -1 -28 -7 -28 -5 0 -9 -11 -9 -24 0 -14 -4 -28 -10 -31
-5 -3 -10 -17 -10 -30 0 -13 -7 -30 -15 -39 -8 -8 -15 -19 -15 -25 0 -6 -9
-16 -19 -23 -15 -9 -17 -16 -10 -30 8 -15 6 -18 -13 -18 -31 0 -50 -14 -43
-31 4 -12 -17 -14 -121 -15 -95 -1 -129 -5 -135 -15 -12 -20 -11 3 1 37 12 31
-2 48 -33 38 -16 -5 -17 -3 -6 14 11 17 9 26 -14 61 -15 23 -34 41 -42 41 -8
0 -15 5 -15 11 0 5 4 7 10 4 6 -3 7 1 4 9 -5 13 -10 13 -27 4 -12 -7 -25 -11
-29 -10 -4 1 -5 -4 -2 -12 5 -13 -14 -26 -46 -32 -79 -16 -116 -26 -118 -34
-2 -6 -9 -10 -15 -10 -15 -1 -49 -47 -52 -69 -4 -36 -18 -51 -49 -52 -30 -2
-30 -2 -3 -6 25 -4 40 -23 17 -23 -5 0 -10 -11 -10 -24 0 -14 -4 -28 -10 -31
-6 -3 -10 4 -10 18 0 24 -25 55 -36 44 -3 -3 -6 -19 -6 -36 -1 -33 -7 -38 -25
-20 -8 8 -13 8 -17 0 -12 -19 -26 -12 -26 13 0 14 -5 28 -11 32 -8 4 -9 -3 -4
-25 5 -24 3 -31 -8 -31 -9 0 -18 6 -21 13 -5 9 -7 10 -12 0 -3 -7 -12 -13 -21
-13 -11 0 -13 8 -8 32 l6 33 -15 -25 c-9 -14 -16 -36 -17 -50 -1 -15 -5 -7 -9
20 -4 29 -8 35 -8 18 -3 -40 -22 -45 -23 -6 l-1 33 -8 -33 c-11 -48 -16 -48
-18 0 -2 52 -12 64 -12 15 0 -43 -5 -45 -38 -14 l-25 22 6 -22 c4 -20 1 -23
-23 -23 -16 0 -30 6 -33 13 -3 10 -9 9 -26 -1 -30 -17 -32 -16 -25 25 5 33 4
36 -10 24 -8 -7 -15 -16 -14 -19 2 -22 -3 -42 -12 -42 -5 0 -10 15 -10 33 -1
34 -5 31 -36 -20 -11 -16 -13 -14 -30 20 -18 38 -28 43 -54 27 -12 -8 -12 -10
5 -10 18 -1 18 -2 -3 -11 -13 -5 -21 -13 -17 -18 3 -6 12 -8 20 -4 8 3 15 0
15 -6 0 -15 -50 -14 -52 2 -8 67 -8 67 46 69 46 1 45 2 -19 7 -77 7 -89 5 -62
-10 10 -6 17 -22 17 -39 0 -28 -2 -30 -37 -29 -31 2 -33 3 -10 6 19 3 27 10
27 24 0 10 -7 19 -15 19 -8 0 -15 -7 -15 -15 0 -8 -4 -15 -10 -15 -5 0 -10 11
-10 25 0 17 6 25 17 25 13 0 14 3 5 12 -8 8 -15 8 -27 -2 -12 -10 -15 -10 -15
4 0 12 -7 14 -29 10 -18 -4 -48 1 -75 11 -24 9 -48 15 -53 12 -5 -3 -22 5 -38
19 -16 14 -31 21 -33 16 -6 -20 -216 39 -224 63 -1 6 -9 9 -17 8 -7 0 -33 10
-56 23 -24 13 -61 26 -84 30 -23 4 -41 12 -41 18 0 13 -102 63 -147 72 -17 3
-41 15 -52 25 -11 11 -23 19 -26 19 -4 0 -28 9 -54 21 -40 17 -53 29 -74 72
-15 29 -30 63 -35 77 -6 14 -22 32 -37 40 -26 14 -28 13 -51 -14 -14 -16 -31
-26 -39 -22 -9 3 -17 -3 -21 -17 -9 -29 -41 -70 -47 -60 -3 5 8 28 24 52 17
24 27 46 24 49 -3 4 9 12 27 19 l33 13 -30 -4 c-116 -16 -156 -37 -166 -84 -5
-27 -2 -39 18 -62 29 -35 62 -48 74 -29 7 11 9 11 9 1 0 -7 -11 -25 -24 -39
-23 -25 -27 -26 -53 -13 l-28 14 30 4 c27 4 24 6 -35 28 -35 14 -69 22 -76 20
-7 -3 -15 2 -18 10 -4 10 -2 12 6 8 7 -5 9 -2 6 8 -5 12 1 14 29 11 19 -2 32
0 29 6 -3 5 0 14 8 20 8 7 17 23 20 36 4 14 10 25 14 25 4 0 5 27 4 60 -3 55
-2 61 20 69 12 6 16 10 8 10 -8 0 -46 -13 -85 -28 l-70 -29 -6 27 c-3 14 -10
25 -17 23 -7 -1 -12 1 -13 5 -6 66 -37 129 -63 127 -14 -2 -20 8 -17 29 0 4
-4 7 -10 7 -5 0 -8 4 -5 9 3 5 -1 14 -8 20 -10 8 -16 9 -21 1 -3 -5 -2 -10 3
-10 5 0 12 -8 15 -19 4 -17 3 -18 -35 -3 -54 21 -77 72 -32 72 8 0 14 3 14 6
0 9 -44 43 -56 44 -6 0 -17 7 -24 15 -11 13 -10 14 6 8 10 -3 3 7 -16 23 -19
16 -44 39 -56 52 -12 12 -26 22 -31 22 -6 0 -13 9 -16 20 -5 19 -44 40 -79 43
-9 1 -14 5 -12 9 3 4 -1 8 -8 8 -7 0 -27 14 -45 30 -18 17 -35 30 -38 30 -3 0
-24 18 -47 41 -23 22 -52 48 -64 56 -13 8 -34 35 -46 59 -12 24 -25 44 -29 44
-4 0 -10 8 -13 18 -4 10 -14 27 -24 38 -16 19 -24 31 -62 99 -33 58 -38 69
-72 140 -19 39 -40 97 -47 130 -7 33 -18 78 -24 100 -22 73 -13 368 13 480 5
22 10 56 10 76 0 19 4 39 9 45 14 15 23 71 12 78 -5 4 -14 -2 -20 -11 -9 -16
-10 -14 -11 9 0 21 4 26 16 21 14 -5 16 -1 12 20 -3 16 0 31 8 38 8 6 14 17
14 23 0 6 11 28 25 49 14 20 22 37 18 37 -4 0 -2 4 6 9 7 5 10 14 7 20 -10 15
-26 14 -26 -2z m5687 -1225 c-10 -10 -14 -22 -10 -27 5 -4 3 -5 -4 -1 -6 3
-29 -3 -50 -15 l-38 -21 25 21 c14 12 37 29 53 38 15 10 27 22 27 27 0 5 3 6
7 3 3 -4 -1 -15 -10 -25z m-30 -88 c35 -7 43 -12 38 -27 -2 -7 -6 -24 -9 -40
-5 -23 -10 -26 -24 -18 -19 10 -72 80 -72 95 0 4 9 5 20 1 11 -3 32 -8 47 -11z
m-5419 -318 c56 -53 68 -82 30 -70 -13 4 -32 13 -42 20 -11 7 -30 11 -43 8
-14 -4 -23 -2 -23 5 0 6 5 11 12 11 6 0 -14 24 -45 53 -52 49 -91 112 -80 130
4 7 89 -62 191 -157z m-509 -81 c0 -5 -4 -3 -9 5 -5 8 -9 22 -9 30 0 16 17
-16 18 -35z m481 15 c8 -5 11 -10 5 -10 -5 0 -17 5 -25 10 -8 5 -10 10 -5 10
6 0 17 -5 25 -10z m1494 -77 c10 -25 3 -23 -17 3 -13 18 -14 22 -3 18 8 -3 17
-13 20 -21z m72 -16 l15 -32 -25 30 c-26 30 -34 51 -16 40 6 -3 17 -21 26 -38z
m-2016 -2 c0 -5 -5 -3 -10 5 -5 8 -10 20 -10 25 0 6 5 3 10 -5 5 -8 10 -19 10
-25z m-70 -12 c-11 -17 -11 -17 -6 0 3 10 6 24 7 30 0 9 2 9 5 0 3 -7 0 -20
-6 -30z m2155 -28 c39 -32 29 -32 -15 0 -19 14 -30 25 -24 25 5 -1 23 -12 39
-25z m-9 -46 c4 -8 1 -8 -14 0 -12 6 -24 16 -28 22 -4 8 -1 8 14 0 12 -6 24
-16 28 -22z m3069 1 c-4 -6 10 -27 30 -46 21 -19 35 -38 31 -41 -3 -4 -6 -1
-6 5 0 7 -9 12 -20 12 -23 0 -43 -39 -29 -54 5 -6 9 -18 9 -27 0 -34 23 -33
52 1 15 19 30 32 32 29 5 -5 -21 -36 -59 -69 -25 -22 -27 -23 -21 -5 6 16 5
17 -5 8 -9 -9 -18 -9 -33 -2 -20 10 -20 10 -2 -5 16 -13 18 -20 8 -41 -15 -32
-35 -32 -56 0 -10 15 -12 25 -5 25 6 0 -3 12 -20 26 -33 27 -39 49 -18 57 6 3
0 6 -15 6 -16 1 -28 6 -28 12 0 7 17 10 45 7 30 -2 45 1 45 9 0 6 7 18 15 27
9 9 11 17 5 21 -13 8 -13 25 1 25 6 0 17 7 25 15 18 17 28 20 19 5z m-2989
-48 c-5 -4 -66 26 -66 33 0 3 16 -3 35 -12 19 -9 33 -18 31 -21z m179 -5 c83
-35 145 -66 133 -67 -4 0 -31 11 -61 24 -29 13 -71 29 -92 36 -41 13 -87 40
-69 40 5 0 46 -15 89 -33z m-2271 -3 c3 -8 2 -12 -4 -9 -6 3 -10 10 -10 16 0
14 7 11 14 -7z m732 -266 c3 -5 4 -11 2 -14 -7 -6 -116 72 -162 114 -43 41
-126 149 -126 164 0 9 273 -243 286 -264z m1364 247 c17 -9 30 -18 30 -21 0
-4 -59 23 -69 32 -10 9 13 3 39 -11z m185 -76 c19 -19 19 -19 -25 -2 -25 9
-47 20 -50 24 -3 3 -15 9 -27 13 -11 4 -24 13 -26 21 -7 17 99 -29 128 -56z
m2684 -21 c16 -18 27 -35 25 -37 -5 -6 -64 50 -64 61 0 15 10 8 39 -24z
m-2444 -6 c-3 -3 -11 0 -18 7 -9 10 -8 11 6 5 10 -3 15 -9 12 -12z m-178 -28
c-5 -5 -57 13 -57 20 0 3 14 0 31 -6 16 -6 28 -12 26 -14z m-2206 -99 l10 -20
-16 20 c-9 11 -21 29 -26 40 l-10 20 16 -20 c9 -11 21 -29 26 -40z m-36 19 c9
-15 12 -23 6 -20 -11 7 -35 46 -28 46 3 0 12 -12 22 -26z m75 -75 c15 -28 5
-23 -15 7 -9 15 -12 23 -6 20 6 -4 16 -16 21 -27z m-9 -26 c13 -16 12 -17 -3
-4 -10 7 -18 15 -18 17 0 8 8 3 21 -13z m-331 -65 c0 -7 -9 -2 -20 12 -26 33
-26 50 0 22 11 -12 20 -27 20 -34z m1234 -30 l16 -33 -20 24 c-11 13 -20 27
-20 32 0 17 9 9 24 -23z m-1214 6 c0 -8 -5 -12 -10 -9 -6 4 -8 11 -5 16 9 14
15 11 15 -7z m401 -1 c13 -16 12 -17 -3 -4 -17 13 -22 21 -14 21 2 0 10 -8 17
-17z m5510 -16 c-10 -9 -11 -8 -5 6 3 10 9 15 12 12 3 -3 0 -11 -7 -18z
m-5866 -27 c8 0 19 -9 25 -20 6 -11 7 -20 3 -20 -12 0 -53 43 -52 54 0 6 3 5
6 -1 2 -7 11 -13 18 -13z m395 -11 c15 -28 5 -23 -15 7 -9 15 -12 23 -6 20 6
-4 16 -16 21 -27z m4956 14 c-6 -16 -5 -16 11 -1 16 14 20 15 37 2 11 -8 16
-14 10 -14 -5 0 -3 -4 5 -9 16 -11 6 -31 -16 -31 -11 0 -14 6 -9 25 8 30 -10
34 -19 5 -8 -24 -21 -26 -29 -5 -5 15 2 45 11 45 3 0 2 -8 -1 -17z m464 -1 c0
-5 -7 -17 -15 -28 -14 -18 -14 -17 -4 9 12 27 19 34 19 19z m-4443 -24 c-3 -8
-6 -5 -6 6 -1 11 2 17 5 13 3 -3 4 -12 1 -19z m4016 -56 c-4 -11 6 -6 25 12
29 27 37 27 33 2 -1 -4 4 -16 11 -25 12 -14 11 -15 -4 -2 -18 14 -53 8 -44 -7
3 -5 -5 -15 -18 -21 -19 -11 -29 -10 -56 4 -34 18 -31 35 8 38 11 0 18 5 16 9
-3 4 -2 13 1 18 10 17 35 -9 28 -28z m-4567 -68 c-2 -6 2 -20 9 -31 21 -27 18
-39 -5 -18 -18 17 -25 14 -21 -9 3 -18 -11 -46 -24 -46 -7 0 -15 9 -18 21 -4
14 -10 18 -19 13 -7 -4 -4 3 7 16 11 13 14 20 7 16 -9 -5 -12 1 -10 23 1 16 6
27 10 25 5 -3 15 2 24 11 13 12 19 13 31 4 7 -7 12 -18 9 -25z m-305 -11 c13
-16 12 -17 -3 -4 -10 7 -18 15 -18 17 0 8 8 3 21 -13z m869 -336 c0 -11 -74
29 -91 49 -9 12 3 8 38 -12 29 -16 53 -32 53 -37z m1210 53 c0 -4 -7 -11 -15
-14 -13 -5 -14 -10 -5 -28 9 -19 7 -19 -14 5 -33 36 -33 42 4 43 17 1 30 -2
30 -6z m904 -12 c-13 -19 -11 -32 6 -46 13 -11 11 -11 -7 -2 -25 12 -30 39
-11 58 15 15 23 8 12 -10z m-137 -40 c-3 -7 -5 -2 -5 12 0 14 2 19 5 13 2 -7
2 -19 0 -25z m-124 -35 c-7 -2 -19 -2 -25 0 -7 3 -2 5 12 5 14 0 19 -2 13 -5z
m2075 -12 c11 -7 10 -9 -3 -14 -9 -4 -14 -3 -10 2 3 5 -1 12 -7 14 -7 3 -8 6
-3 6 6 0 16 -3 23 -8z m-71 -57 c-3 -3 -12 -4 -19 -1 -8 3 -5 6 6 6 11 1 17
-2 13 -5z m-87 -24 c0 -5 -8 -10 -17 -10 -15 0 -16 2 -3 10 19 12 20 12 20 0z
m-27 -24 c17 -13 17 -14 0 -21 -31 -14 -63 -16 -63 -5 0 5 5 10 11 10 5 0 8 4
5 9 -4 5 0 12 6 14 19 8 21 8 41 -7z m-70 -55 c4 -15 -1 -17 -25 -15 -16 2
-37 8 -46 13 -13 8 -10 10 16 9 18 -1 35 2 39 5 9 10 10 9 16 -12z m-73 -36
c-7 -8 -16 -12 -21 -9 -13 8 -1 24 18 24 13 0 13 -3 3 -15z m-3119 -21 c167
-68 451 -214 415 -214 -33 0 -261 89 -331 129 -81 47 -169 110 -154 111 3 0
34 -12 70 -26z m3079 6 c0 -5 -4 -10 -9 -10 -6 0 -13 5 -16 10 -3 6 1 10 9 10
9 0 16 -4 16 -10z m-30 -20 c0 -5 8 -6 18 -3 15 6 15 5 4 -10 -10 -12 -19 -14
-38 -6 -36 13 -39 11 -14 -9 l22 -18 -41 -14 c-22 -7 -41 -17 -41 -22 0 -4 -7
-8 -15 -8 -8 0 -15 -4 -15 -9 0 -5 -9 -7 -20 -4 -11 3 -20 1 -20 -5 0 -11 -5
-14 -125 -74 -127 -64 -204 -98 -293 -128 -109 -36 -345 -98 -392 -102 -19 -1
-37 -6 -40 -9 -18 -24 -437 -24 -590 0 -54 8 -55 9 -12 10 23 0 42 6 42 11 0
6 52 10 136 10 79 0 144 5 156 11 15 8 22 8 28 -1 5 -8 18 -10 35 -6 22 6 25
9 15 21 -11 13 -3 15 51 16 51 1 58 3 34 9 -23 6 -12 8 42 9 60 1 71 4 67 16
-5 12 2 15 30 15 21 0 36 -5 36 -12 0 -6 8 -2 18 8 21 24 77 21 68 -3 -4 -10
5 -7 27 10 46 35 151 69 155 51 5 -19 32 -18 32 1 0 9 9 25 20 37 15 16 27 20
55 15 22 -4 35 -2 35 5 0 7 18 9 50 6 32 -3 50 -1 51 6 0 6 3 6 6 -1 7 -18 33
-16 33 1 0 8 10 17 23 21 38 11 67 28 61 37 -3 4 9 8 26 8 21 0 38 8 51 23 10
12 18 16 19 10 0 -8 13 -13 31 -13 26 0 29 2 20 14 -14 17 1 31 24 23 7 -3 24
4 37 15 22 19 74 47 91 48 4 0 7 -4 7 -10z m-3647 -59 c20 -12 37 -25 37 -27
0 -7 -53 24 -80 46 -26 23 -18 19 43 -19z m3297 -66 c0 -7 -30 -13 -34 -7 -3
4 4 9 15 9 10 1 19 0 19 -2z m-3044 -106 c191 -117 241 -149 232 -149 -7 0
-76 40 -174 102 -64 40 -80 46 -68 26 4 -8 3 -10 -2 -5 -5 5 -9 13 -9 17 0 5
-31 29 -70 54 -119 78 -65 51 91 -45z m2777 54 c-7 -2 -21 -2 -30 0 -10 3 -4
5 12 5 17 0 24 -2 18 -5z m-2723 -120 c0 -7 -39 17 -46 28 -3 6 5 3 20 -6 14
-10 26 -19 26 -22z m31 -20 c13 -16 12 -17 -3 -4 -17 13 -22 21 -14 21 2 0 10
-8 17 -17z m209 -58 c11 -13 10 -14 -4 -9 -9 3 -16 10 -16 15 0 13 6 11 20 -6z
m49 -64 c99 -56 205 -107 241 -116 16 -4 9 3 -19 19 -23 14 -47 26 -51 26 -5
0 -17 11 -28 25 -11 13 -22 22 -25 19 -8 -9 -67 28 -61 38 3 5 12 4 20 -3 7
-6 21 -9 29 -5 9 3 18 0 21 -8 3 -7 23 -17 46 -20 22 -4 57 -15 77 -26 28 -14
41 -16 49 -8 9 9 17 7 32 -7 11 -10 20 -15 20 -12 0 4 12 2 28 -4 15 -6 57
-12 94 -14 37 -2 70 -5 75 -8 4 -3 28 -8 53 -12 25 -4 50 -12 57 -17 7 -5 21
-7 32 -3 11 3 30 1 43 -6 16 -9 23 -9 26 0 5 16 32 14 38 -4 4 -10 21 -15 48
-16 35 -1 37 -2 16 -9 -20 -6 -21 -8 -5 -8 26 0 75 16 55 17 -12 1 -11 4 3 12
13 8 27 8 45 1 15 -6 66 -14 115 -17 48 -4 87 -10 87 -14 0 -13 66 -31 113
-31 43 0 47 -2 47 -25 0 -23 -4 -25 -42 -27 l-43 -1 45 -6 c56 -7 35 -18 -47
-24 -32 -3 -48 -3 -35 0 13 3 22 12 22 23 0 10 6 21 13 23 6 3 -3 4 -21 3 -17
-2 -35 -6 -40 -11 -4 -5 -2 -5 5 -1 6 3 14 2 18 -4 3 -5 -3 -10 -14 -10 -12 0
-21 -7 -21 -15 0 -8 -8 -15 -18 -15 -10 0 -29 -11 -42 -25 -16 -17 -35 -25
-59 -26 -39 0 -87 -16 -61 -19 8 -1 24 -2 35 -1 16 1 14 -2 -8 -14 -28 -16
-104 -12 -78 4 6 4 -6 7 -26 7 l-37 0 40 -18 39 -19 -35 7 c-19 3 -58 17 -86
29 -28 13 -73 30 -100 38 -27 8 -87 32 -134 54 -47 22 -112 48 -145 58 -117
37 -266 108 -435 207 -131 78 -140 92 -11 19z m46 26 c4 5 5 2 1 -5 -8 -13
-39 -2 -52 19 -3 6 5 4 18 -5 14 -9 28 -13 33 -9z m-100 -37 c3 -5 2 -10 -4
-10 -5 0 -13 5 -16 10 -3 6 -2 10 4 10 5 0 13 -4 16 -10z m1575 -180 c0 -5
-10 -10 -22 -10 -19 0 -20 2 -8 10 19 13 30 13 30 0z m137 -326 c-3 -3 -12 -4
-19 -1 -8 3 -5 6 6 6 11 1 17 -2 13 -5z m-142 -14 c-3 -5 -14 -10 -23 -9 -14
0 -13 2 3 9 27 11 27 11 20 0z m-1358 -16 c-3 -3 -12 -4 -19 -1 -8 3 -5 6 6 6
11 1 17 -2 13 -5z m1300 0 c-3 -3 -12 -4 -19 -1 -8 3 -5 6 6 6 11 1 17 -2 13
-5z m-1790 -10 c-3 -3 -12 -4 -19 -1 -8 3 -5 6 6 6 11 1 17 -2 13 -5z m1882
-12 c13 5 26 7 28 4 10 -9 -87 -33 -129 -31 -26 1 -45 -1 -43 -4 1 -3 -13 -7
-33 -8 l-37 -1 30 10 c78 26 122 34 140 28 11 -4 31 -3 44 2z m-1703 -52 c16
-6 56 -14 89 -20 l60 -9 -65 4 c-36 2 -83 11 -105 19 -44 16 -25 22 21 6z
m1581 -6 c-3 -3 -12 -4 -19 -1 -8 3 -5 6 6 6 11 1 17 -2 13 -5z m-1211 -59
c159 -23 167 -29 44 -27 l-65 0 65 -7 c36 -5 71 -6 79 -3 14 5 33 -17 25 -30
-3 -4 -16 -8 -30 -8 -14 0 -22 -4 -19 -10 8 -12 -5 -13 -24 -1 -8 5 -21 7 -28
4 -12 -5 -12 -7 -1 -14 12 -8 -23 -12 -122 -14 -19 0 -40 -4 -47 -8 -17 -10
-43 3 -43 22 0 14 -2 14 -10 1 -7 -11 -10 -7 -11 20 -2 30 -3 31 -6 8 -5 -30
-23 -39 -23 -12 0 14 -3 14 -15 4 -12 -10 -15 -10 -15 3 0 18 49 56 88 67 l27
7 -27 11 c-16 7 -28 14 -28 16 0 3 6 3 13 0 8 -3 85 -16 173 -29z m912 28
c-10 -2 -26 -2 -35 0 -10 3 -2 5 17 5 19 0 27 -2 18 -5z m-20 -30 c-10 -2 -26
-2 -35 0 -10 3 -2 5 17 5 19 0 27 -2 18 -5z m1827 -148 c-7 -33 -18 -71 -24
-85 -10 -22 -11 -18 -6 24 3 27 9 54 14 60 4 6 11 24 15 40 13 55 14 20 1 -39z
m62 -81 c42 -63 42 -64 18 -62 -15 1 -25 9 -26 18 0 9 -4 6 -9 -7 -12 -30 -16
-29 -35 8 -16 30 -13 110 3 108 4 0 26 -29 49 -65z m-105 -66 c-8 -8 -9 -4 -5
13 4 13 8 18 11 10 2 -7 -1 -18 -6 -23z m-37 -20 c17 -1 36 -6 44 -12 7 -6 23
-12 35 -13 11 -2 47 -11 79 -21 l58 -17 -105 -84 c-58 -46 -106 -87 -107 -90
0 -3 -9 -37 -19 -76 -21 -77 -25 -64 -10 34 l9 65 -39 42 c-22 24 -46 59 -55
78 -8 20 -22 52 -30 72 l-16 36 63 -7 c35 -3 77 -6 93 -7z m195 -7 c0 -16 -15
-20 -40 -14 -22 6 -23 7 -4 14 27 11 44 11 44 0z m1887 -623 c-3 -8 -6 -5 -6
6 -1 11 2 17 5 13 3 -3 4 -12 1 -19z m-5577 -222 c0 -12 -5 -7 -19 24 -11 24
-11 24 3 6 9 -11 16 -24 16 -30z m-32 -58 c-21 -30 -34 -34 -58 -17 -12 8 -10
9 7 4 28 -8 58 33 48 67 -6 22 -5 22 9 -2 13 -22 12 -27 -6 -52z"/>
<path d="M6300 2376 c0 -2 7 -7 16 -10 8 -3 12 -2 9 4 -6 10 -25 14 -25 6z"/>
<path d="M6168 2303 c6 -2 18 -2 25 0 6 3 1 5 -13 5 -14 0 -19 -2 -12 -5z"/>
<path d="M5760 2190 c0 -13 20 -13 40 0 12 8 9 10 -12 10 -16 0 -28 -4 -28
-10z"/>
<path d="M4248 1773 c7 -3 16 -2 19 1 4 3 -2 6 -13 5 -11 0 -14 -3 -6 -6z"/>
<path d="M4320 1770 c0 -5 18 -10 40 -10 22 0 40 5 40 10 0 6 -18 10 -40 10
-22 0 -40 -4 -40 -10z"/>
<path d="M4338 1703 c12 -2 32 -2 45 0 12 2 2 4 -23 4 -25 0 -35 -2 -22 -4z"/>
<path d="M4098 1633 c7 -3 16 -2 19 1 4 3 -2 6 -13 5 -11 0 -14 -3 -6 -6z"/>
<path d="M4295 1630 c-19 -8 -19 -9 3 -9 12 -1 22 4 22 9 0 6 -1 10 -2 9 -2 0
-12 -4 -23 -9z"/>
<path d="M4278 1583 c6 -2 18 -2 25 0 6 3 1 5 -13 5 -14 0 -19 -2 -12 -5z"/>
<path d="M3658 1223 c7 -3 16 -2 19 1 4 3 -2 6 -13 5 -11 0 -14 -3 -6 -6z"/>
<path d="M6271 1064 c0 -11 3 -14 6 -6 3 7 2 16 -1 19 -3 4 -6 -2 -5 -13z"/>
<path d="M6234 928 c-8 -13 23 -39 45 -37 11 1 10 3 -3 6 -15 4 -16 7 -5 15
10 6 7 7 -10 3 -19 -6 -23 -4 -18 9 7 18 2 21 -9 4z"/>
<path d="M6295 910 c3 -5 8 -10 11 -10 2 0 4 5 4 10 0 6 -5 10 -11 10 -5 0 -7
-4 -4 -10z"/>
<path d="M4760 5551 c0 -5 5 -13 10 -16 6 -3 10 -2 10 4 0 5 -4 13 -10 16 -5
3 -10 2 -10 -4z"/>
<path d="M4820 5503 c13 -18 25 -33 27 -33 8 0 -17 38 -33 51 -11 9 -9 2 6
-18z"/>
<path d="M5242 5420 c0 -14 2 -19 5 -12 2 6 2 18 0 25 -3 6 -5 1 -5 -13z"/>
<path d="M4822 5375 c0 -16 2 -22 5 -12 2 9 2 23 0 30 -3 6 -5 -1 -5 -18z"/>
<path d="M3731 5280 c-1 -8 -12 -37 -26 -64 -14 -28 -22 -52 -17 -55 15 -11
12 -71 -4 -96 -18 -27 -10 -49 15 -40 13 5 14 4 4 -6 -15 -15 -18 -59 -4 -59
5 0 8 -8 7 -17 0 -10 5 -17 12 -15 6 1 11 -1 10 -5 -1 -5 7 -23 19 -41 14 -22
23 -29 26 -20 4 9 6 7 6 -4 1 -10 5 -18 11 -18 5 0 6 -7 3 -17 -4 -11 -3 -14
5 -9 7 4 12 2 12 -4 0 -6 4 -9 8 -6 5 3 26 -10 47 -29 52 -48 56 -44 7 9 -45
48 -68 86 -53 86 5 0 12 -8 15 -18 4 -10 24 -36 47 -58 l41 -39 -50 72 c-50
74 -89 169 -116 283 l-15 65 5 -60 5 -60 -15 40 c-8 21 -13 41 -11 43 2 3 0
12 -5 22 -6 11 -4 34 6 65 8 27 12 54 10 60 -2 5 -5 3 -5 -5z m59 -355 c12
-20 20 -38 17 -41 -2 -3 -15 12 -28 33 -13 21 -27 40 -31 41 -4 2 -8 22 -7 45
l0 42 13 -42 c8 -23 24 -58 36 -78z"/>
<path d="M1502 5235 c-6 -14 -8 -25 -3 -25 8 0 23 41 17 47 -1 2 -8 -8 -14
-22z"/>
<path d="M4535 5150 c-19 -8 -19 -9 3 -9 12 -1 22 4 22 9 0 6 -1 10 -2 9 -2 0
-12 -4 -23 -9z"/>
<path d="M4290 5119 c0 -6 -7 -9 -15 -6 -12 5 -12 0 2 -28 20 -42 26 -43 41
-10 15 32 15 48 2 40 -5 -3 -10 -1 -10 4 0 6 -4 11 -10 11 -5 0 -10 -5 -10
-11z"/>
<path d="M4628 5083 c-27 -14 -46 -28 -45 -30 2 -2 28 10 58 27 30 16 50 30
44 30 -5 0 -31 -12 -57 -27z"/>
<path d="M5502 5080 c0 -14 2 -19 5 -12 2 6 2 18 0 25 -3 6 -5 1 -5 -13z"/>
<path d="M4118 5003 c6 -2 18 -2 25 0 6 3 1 5 -13 5 -14 0 -19 -2 -12 -5z"/>
<path d="M4188 4993 c17 -2 47 -2 65 0 17 2 3 4 -33 4 -36 0 -50 -2 -32 -4z"/>
<path d="M5501 4894 c-6 -15 -9 -29 -7 -32 3 -2 10 8 16 23 14 36 7 43 -9 9z"/>
<path d="M6041 4869 c-14 -21 -30 -38 -36 -39 -5 0 -21 -16 -34 -35 -13 -19
-27 -35 -32 -35 -4 0 -47 -38 -94 -85 -48 -47 -90 -85 -94 -85 -4 0 -24 -16
-44 -35 -20 -19 -39 -35 -42 -35 -2 0 -28 -15 -57 -34 -65 -41 -175 -96 -193
-96 -8 0 -20 -6 -27 -13 -16 -16 -81 -47 -98 -47 -7 0 -10 -6 -7 -14 3 -8 1
-17 -6 -20 -7 -2 6 -5 28 -6 l40 -2 -35 -16 -35 -16 35 -6 c37 -7 34 -10 -31
-30 -47 -14 -85 -47 -99 -85 -6 -16 -11 -32 -10 -34 1 -2 -4 -8 -12 -13 -17
-11 31 0 101 24 30 10 56 16 58 14 4 -4 -133 -63 -162 -69 -17 -4 -17 -5 3 -6
39 -2 201 48 312 96 91 39 147 70 327 179 49 30 163 145 156 157 -3 6 -2 7 4
4 5 -3 23 8 40 26 31 33 103 148 107 170 1 7 4 17 7 22 4 6 7 30 7 55 1 32 -1
41 -8 30 -6 -9 -10 -10 -10 -3 0 7 7 16 16 21 13 7 14 13 6 29 -6 11 -8 31 -5
44 5 23 5 24 -10 4 -16 -20 -16 -20 -11 1 9 35 -26 24 -55 -17z"/>
<path d="M3480 4796 c0 -3 9 -10 20 -16 11 -6 20 -8 20 -6 0 3 -9 10 -20 16
-11 6 -20 8 -20 6z"/>
<path d="M4398 4768 c5 -5 16 -8 23 -6 8 3 3 7 -10 11 -17 4 -21 3 -13 -5z"/>
<path d="M3340 4766 c0 -2 8 -10 18 -17 15 -13 16 -12 3 4 -13 16 -21 21 -21
13z"/>
<path d="M1312 4580 c0 -69 3 -147 7 -175 4 -28 6 24 3 115 -5 199 -10 232
-10 60z"/>
<path d="M1096 4617 c3 -10 9 -15 12 -12 3 3 0 11 -7 18 -10 9 -11 8 -5 -6z"/>
<path d="M2520 4582 c12 -18 40 -48 63 -67 54 -45 207 -157 207 -151 0 2 -48
41 -106 87 -59 46 -124 102 -146 124 -38 38 -39 38 -18 7z"/>
<path d="M3918 4533 c7 -3 16 -2 19 1 4 3 -2 6 -13 5 -11 0 -14 -3 -6 -6z"/>
<path d="M3970 4522 c46 -16 95 -23 85 -13 -6 5 -32 12 -60 15 -33 4 -41 3
-25 -2z"/>
<path d="M4108 4503 c17 -2 47 -2 65 0 17 2 3 4 -33 4 -36 0 -50 -2 -32 -4z"/>
<path d="M5945 4428 c-33 -34 -46 -51 -30 -37 30 24 101 99 93 99 -2 0 -30
-28 -63 -62z"/>
<path d="M4305 4440 c-18 -8 -17 -9 8 -9 16 -1 26 3 22 9 -3 6 -7 10 -8 9 -1
0 -11 -4 -22 -9z"/>
<path d="M2664 4422 c10 -12 39 -33 62 -47 48 -28 56 -40 22 -30 -22 6 -22 5
-3 -6 11 -7 28 -23 38 -36 10 -13 23 -23 30 -23 10 0 69 -59 140 -139 15 -17
27 -26 27 -19 1 7 10 2 20 -11 11 -13 20 -19 20 -14 0 4 -13 25 -30 45 -26 32
-28 37 -13 43 10 3 19 1 21 -4 2 -6 9 -11 15 -11 8 0 7 4 -1 12 -7 7 -12 17
-12 24 0 9 17 7 62 -7 34 -10 63 -17 65 -15 2 1 -23 14 -54 28 -32 14 -103 47
-158 72 -116 55 -116 47 -1 -15 93 -50 87 -66 -6 -19 -81 41 -120 69 -113 81
4 5 -2 6 -11 2 -11 -4 -15 -2 -11 4 4 6 -17 28 -46 50 -69 52 -87 62 -63 35z"/>
<path d="M4648 4433 c7 -3 16 -2 19 1 4 3 -2 6 -13 5 -11 0 -14 -3 -6 -6z"/>
<path d="M1121 4418 c-1 -24 2 -34 12 -30 9 3 9 -2 1 -23 -5 -13 -9 -14 -15
-3 -6 8 -6 0 -3 -19 4 -21 2 -33 -4 -33 -6 0 -14 -17 -17 -37 -4 -21 -10 -48
-15 -60 -12 -29 8 -31 39 -5 16 13 22 30 24 68 1 29 5 50 8 48 10 -6 20 42 13
60 -3 9 -12 16 -19 16 -8 0 -16 8 -18 18 -4 16 -5 16 -6 0z"/>
<path d="M2258 4328 c-2 -7 -1 -26 3 -43 6 -28 7 -26 8 13 1 42 -3 53 -11 30z"/>
<path d="M5820 4322 c0 -7 -59 -46 -70 -47 -3 0 -29 -15 -57 -33 -70 -45 -269
-134 -373 -167 -130 -41 -141 -46 -100 -39 109 19 527 194 514 216 -3 4 2 8
11 8 9 0 34 12 56 28 38 27 49 42 29 42 -5 0 -10 -4 -10 -8z"/>
<path d="M3600 4262 c0 -4 23 -26 52 -47 29 -22 61 -49 72 -60 30 -30 96 -68
96 -56 0 5 -21 24 -47 42 -27 18 -76 54 -110 81 -35 27 -63 45 -63 40z"/>
<path d="M3587 4239 c14 -17 103 -83 103 -76 0 3 -26 24 -57 48 -32 23 -53 36
-46 28z"/>
<path d="M4537 4223 c-7 -16 -21 -41 -31 -56 -10 -15 -17 -30 -14 -32 6 -6 54
67 63 95 9 30 -4 24 -18 -7z"/>
<path d="M1290 4160 c-14 -22 -28 -40 -32 -40 -5 0 -8 -4 -8 -10 0 -26 27 -4
47 38 28 58 25 63 -7 12z"/>
<path d="M3220 4140 c8 -5 22 -9 30 -9 10 0 8 3 -5 9 -27 12 -43 12 -25 0z"/>
<path d="M3315 4110 c11 -5 27 -9 35 -9 9 0 8 4 -5 9 -11 5 -27 9 -35 9 -9 0
-8 -4 5 -9z"/>
<path d="M3570 4050 c8 -5 20 -10 25 -10 6 0 3 5 -5 10 -8 5 -19 10 -25 10 -5
0 -3 -5 5 -10z"/>
<path d="M3182 4040 c4 -14 82 -60 101 -60 13 0 -29 31 -77 56 -19 11 -27 12
-24 4z"/>
<path d="M1316 4024 c-4 -9 -4 -19 -1 -22 2 -3 7 3 11 12 4 9 4 19 1 22 -2 3
-7 -3 -11 -12z"/>
<path d="M3076 4027 c3 -10 9 -15 12 -12 3 3 0 11 -7 18 -10 9 -11 8 -5 -6z"/>
<path d="M3650 4025 c25 -8 63 -17 85 -19 22 -2 52 -7 67 -11 15 -4 34 -3 43
2 18 10 -64 27 -180 37 l-60 6 45 -15z"/>
<path d="M1336 4013 c-4 -9 -3 -20 2 -25 6 -6 10 1 10 16 0 30 -3 32 -12 9z"/>
<path d="M1360 4021 c0 -6 4 -13 10 -16 6 -3 7 1 4 9 -7 18 -14 21 -14 7z"/>
<path d="M4863 3973 c9 -2 23 -2 30 0 6 3 -1 5 -18 5 -16 0 -22 -2 -12 -5z"/>
<path d="M3250 3966 c0 -2 8 -10 18 -17 15 -13 16 -12 3 4 -13 16 -21 21 -21
13z"/>
<path d="M2456 3888 c37 -126 58 -179 107 -280 30 -62 60 -110 70 -113 14 -5
17 -13 13 -31 -4 -14 -2 -24 4 -24 6 0 8 5 4 12 -5 7 -3 8 5 3 7 -4 11 -16 8
-26 -6 -21 8 -26 16 -6 4 10 6 10 6 0 1 -7 6 -13 13 -13 23 0 98 33 98 42 0 6
-7 7 -16 4 -19 -7 -69 42 -78 78 -3 13 -17 31 -31 40 -14 10 -30 28 -35 42 -6
15 -15 22 -22 18 -7 -4 -8 -3 -4 4 4 7 -8 27 -29 47 -19 20 -35 41 -35 47 0 6
-6 19 -14 27 -7 9 -21 37 -31 64 -10 26 -22 47 -28 47 -6 0 -8 3 -4 6 6 6 -19
64 -28 64 -2 0 3 -24 11 -52z m255 -455 c13 -16 12 -17 -3 -4 -17 13 -22 21
-14 21 2 0 10 -8 17 -17z"/>
<path d="M3270 3860 c36 -34 56 -59 45 -56 -19 5 -55 -8 -45 -17 3 -2 16 -11
30 -21 l25 -17 -25 3 c-14 2 -28 8 -32 13 -4 6 -8 -2 -8 -17 0 -28 24 -40 32
-16 5 14 28 2 28 -15 0 -7 -4 -6 -10 3 -7 12 -11 10 -18 -10 -10 -26 0 -50 21
-50 7 0 7 4 -1 12 -18 18 -14 27 9 21 18 -5 20 -3 14 18 -5 19 -4 21 4 9 9
-13 12 -13 20 -1 10 15 3 44 -8 36 -4 -2 -7 6 -6 18 3 35 -19 70 -67 103 -73
52 -76 48 -8 -16z"/>
<path d="M2450 3820 c0 -8 5 -22 10 -30 9 -13 10 -13 10 0 0 8 -5 22 -10 30
-9 13 -10 13 -10 0z"/>
<path d="M2476 3750 c3 -14 11 -32 16 -40 6 -10 7 -7 2 10 -3 14 -11 32 -16
40 -6 10 -7 7 -2 -10z"/>
<path d="M3465 3730 c3 -5 8 -10 11 -10 2 0 4 5 4 10 0 6 -5 10 -11 10 -5 0
-7 -4 -4 -10z"/>
<path d="M3332 3620 c0 -14 2 -19 5 -12 2 6 2 18 0 25 -3 6 -5 1 -5 -13z"/>
<path d="M3398 3618 c4 -17 2 -20 -13 -14 -15 6 -16 4 -5 -10 11 -13 11 -17 1
-24 -11 -6 -11 -15 -1 -46 16 -51 28 -64 55 -64 25 0 45 20 69 68 14 27 15 36
5 48 -24 29 -48 36 -65 19 -17 -17 -44 -20 -44 -5 0 5 6 7 14 4 24 -9 25 10 1
28 -22 17 -23 17 -17 -4z"/>
<path d="M7421 3513 c-10 -26 -10 -27 4 -9 8 11 15 23 15 28 0 15 -7 8 -19
-19z"/>
<path d="M1210 3481 c0 -6 5 -13 11 -17 6 -3 9 -15 6 -25 -6 -23 8 -26 17 -4
3 9 0 25 -7 35 -12 21 -27 26 -27 11z"/>
<path d="M7407 3414 c-15 -30 -27 -60 -27 -67 1 -6 15 16 32 51 17 34 29 65
26 67 -2 2 -16 -20 -31 -51z"/>
<path d="M7365 3393 c-15 -32 -32 -66 -37 -75 -5 -10 -6 -18 -3 -18 7 0 77
141 72 147 -3 2 -17 -22 -32 -54z"/>
<path d="M4750 3420 c8 -5 24 -10 34 -10 26 0 18 6 -19 14 -22 5 -26 4 -15 -4z"/>
<path d="M7303 3278 c-12 -15 -24 -48 -18 -48 2 0 10 14 19 30 15 32 15 38 -1
18z"/>
<path d="M5019 3201 c8 -5 11 -16 8 -25 -4 -9 -2 -16 4 -16 6 0 6 -6 0 -18 -8
-14 -6 -19 5 -19 12 0 14 7 10 30 -3 16 -6 36 -6 43 0 8 -8 14 -17 14 -15 0
-15 -2 -4 -9z"/>
<path d="M4963 3147 l-41 -42 27 -32 c29 -35 55 -46 56 -23 1 8 6 14 12 13 6
-1 9 6 6 18 -3 11 -11 18 -19 15 -8 -3 -11 0 -8 8 3 8 1 17 -5 21 -17 10 -13
28 5 21 8 -3 12 -2 9 3 -3 5 -1 12 5 16 12 7 14 25 3 24 -5 0 -27 -20 -50 -42z"/>
<path d="M5140 3167 c0 -8 7 -20 15 -27 12 -10 15 -10 15 3 0 8 -7 20 -15 27
-12 10 -15 10 -15 -3z"/>
<path d="M5116 3135 c4 -8 10 -15 15 -15 5 0 9 7 9 15 0 8 -7 15 -15 15 -9 0
-12 -6 -9 -15z"/>
<path d="M5095 3110 c-3 -5 -18 -7 -33 -4 l-27 7 22 -22 c12 -11 26 -21 30
-21 13 0 33 39 23 45 -5 3 -11 1 -15 -5z"/>
<path d="M5115 3091 c-3 -6 -4 -15 -1 -20 8 -13 48 -1 43 13 -5 15 -34 20 -42
7z"/>
<path d="M4935 3029 c-4 -6 -5 -12 -2 -15 2 -3 7 2 10 11 7 17 1 20 -8 4z"/>
<path d="M4950 2961 c16 -30 28 -34 35 -10 8 25 -3 39 -15 19 -7 -10 -10 -11
-10 -2 0 6 -5 12 -10 12 -7 0 -7 -6 0 -19z"/>
<path d="M5087 2944 c6 -15 23 -19 23 -5 0 5 -7 11 -14 14 -10 4 -13 1 -9 -9z"/>
<path d="M4282 2748 c-5 -7 -7 -21 -3 -31 5 -14 8 -12 18 13 11 31 4 40 -15
18z"/>
<path d="M4446 2695 c4 -8 9 -15 13 -15 4 0 8 7 8 15 0 8 -6 15 -13 15 -8 0
-11 -6 -8 -15z"/>
<path d="M2878 1373 c7 -3 16 -2 19 1 4 3 -2 6 -13 5 -11 0 -14 -3 -6 -6z"/>
<path d="M2488 1284 c6 -3 12 -20 12 -37 1 -18 7 -58 15 -90 7 -31 13 -58 13
-60 1 -1 5 -15 11 -30 6 -16 11 -36 11 -45 0 -10 7 -28 16 -40 9 -13 13 -26
10 -29 -3 -4 -6 -1 -6 5 0 7 -4 12 -10 12 -5 0 -10 -7 -10 -15 0 -8 5 -15 11
-15 6 0 9 -10 6 -22 -2 -13 -1 -34 2 -48 l7 -25 9 25 c5 16 4 25 -4 28 -6 2
-8 8 -5 14 4 6 10 5 15 -3 7 -11 11 -10 23 6 9 11 16 17 16 14 0 -8 -38 -81
-58 -109 -9 -13 -12 -21 -6 -18 6 4 57 77 113 162 89 134 101 157 92 175 -6
11 -20 25 -32 31 -11 6 -16 16 -13 22 4 6 3 8 -4 4 -5 -3 -23 4 -39 17 -15 13
-50 30 -78 37 -27 7 -54 16 -60 20 -5 4 -23 10 -40 13 -16 4 -24 4 -17 1z"/>
<path d="M2776 1075 c-9 -26 -7 -32 5 -12 6 10 9 21 6 23 -2 3 -7 -2 -11 -11z"/>
</g>
</svg>
